<?xml version="1.0" standalone="no"?>
<!DOCTYPE svg PUBLIC "-//W3C//DTD SVG 20010904//EN"
 "http://www.w3.org/TR/2001/REC-SVG-20010904/DTD/svg10.dtd">
<svg version="1.0" xmlns="http://www.w3.org/2000/svg"
 width="512.000000pt" height="512.000000pt" viewBox="0 0 512.000000 512.000000"
 preserveAspectRatio="xMidYMid meet">

<g transform="translate(0.000000,512.000000) scale(0.100000,-0.100000)"
fill="#000000" stroke="none">
<path d="M2440 5114 c-14 -2 -52 -9 -85 -15 -136 -23 -299 -90 -420 -172 -87
-59 -225 -197 -285 -283 -69 -100 -133 -238 -166 -359 -25 -91 -27 -115 -27
-275 0 -157 2 -185 26 -273 45 -168 141 -346 260 -480 l43 -49 42 85 c95 192
245 330 443 407 l71 27 -35 22 c-80 49 -156 156 -181 256 -54 204 43 419 232
514 299 151 654 -70 652 -407 -1 -137 -86 -295 -196 -363 l-36 -22 71 -27
c199 -78 347 -214 443 -407 l42 -85 43 49 c179 203 278 443 290 703 13 317
-91 589 -315 822 -157 162 -343 266 -566 314 -69 15 -296 27 -346 18z"/>
<path d="M2494 4250 c-55 -28 -88 -86 -82 -145 21 -178 275 -178 296 0 6 62
-32 126 -88 149 -53 21 -76 20 -126 -4z"/>
<path d="M2436 3439 c-162 -38 -316 -184 -366 -348 -23 -74 -29 -67 77 -111
141 -59 229 -75 418 -74 151 0 181 4 267 27 87 23 210 69 231 87 13 11 -31
134 -71 196 -70 107 -179 188 -297 219 -64 16 -197 18 -259 4z"/>
<path d="M76 2716 c-78 -47 -75 -20 -76 -659 0 -550 1 -569 20 -607 13 -26 34
-47 60 -60 36 -18 58 -20 257 -20 188 0 223 2 253 18 107 53 107 211 0 264
-28 14 -61 18 -162 18 l-128 0 0 475 c0 457 -1 477 -20 515 -23 45 -81 80
-132 80 -18 0 -51 -11 -72 -24z"/>
<path d="M1195 2725 c-38 -9 -112 -36 -164 -61 -166 -82 -288 -225 -349 -412
-35 -108 -36 -274 -3 -382 38 -124 87 -206 176 -296 167 -168 392 -236 623
-188 316 65 542 344 542 669 0 303 -194 565 -485 655 -92 29 -245 35 -340 15z
m240 -300 c111 -29 204 -108 254 -214 23 -49 26 -69 26 -156 0 -93 -2 -105
-33 -167 -40 -83 -119 -158 -200 -189 -44 -18 -77 -23 -147 -24 -80 0 -97 4
-155 31 -116 55 -195 158 -221 287 -23 112 21 246 109 332 102 101 229 135
367 100z"/>
<path d="M2665 2725 c-38 -9 -113 -36 -165 -62 -153 -75 -276 -213 -336 -377
-52 -144 -52 -318 0 -462 81 -221 284 -397 509 -439 l37 -7 0 94 c0 55 6 115
15 144 19 62 19 64 -2 64 -36 0 -140 58 -185 104 -188 188 -134 498 107 617
115 57 240 49 373 -22 30 -16 70 -29 89 -29 126 0 195 150 112 244 -94 108
-365 171 -554 131z"/>
<path d="M3645 2726 c-37 -17 -70 -52 -84 -89 -7 -19 -11 -196 -11 -520 l0
-492 142 -60 c78 -33 145 -61 150 -63 4 -2 8 249 8 557 0 616 1 608 -60 651
-39 28 -105 35 -145 16z"/>
<path d="M4170 2729 c-14 -6 -36 -20 -48 -32 -53 -49 -52 -34 -52 -642 0 -502
2 -571 16 -601 49 -103 201 -111 259 -13 19 31 20 57 25 346 l5 312 215 -312
c118 -171 230 -328 248 -349 79 -88 211 -69 262 38 l22 45 -7 552 c-7 527 -8
554 -27 588 -24 43 -82 79 -127 79 -51 0 -108 -35 -132 -81 -20 -40 -20 -53
-17 -350 2 -170 1 -309 -2 -309 -3 1 -104 146 -225 322 -121 177 -233 337
-250 356 -47 55 -108 74 -165 51z"/>
<path d="M2869 2177 c-94 -63 -88 -193 12 -252 24 -14 57 -20 126 -23 l92 -4
-14 -36 c-9 -19 -14 -36 -13 -37 2 0 64 -26 138 -57 l135 -56 17 37 c29 63 48
151 54 246 6 104 -8 144 -65 182 -33 22 -42 23 -241 23 -199 0 -208 -1 -241
-23z"/>
<path d="M3063 1464 c-17 -9 -36 -28 -42 -42 -6 -16 -13 -217 -17 -498 -6
-424 -5 -474 10 -502 20 -38 44 -52 90 -52 37 0 64 18 147 97 l46 44 148 -228
c170 -262 191 -287 244 -280 43 5 404 238 439 282 43 55 48 45 -220 457 l-77
117 66 30 c36 17 69 31 73 31 5 0 22 11 38 25 62 52 47 136 -29 172 -112 52
-858 363 -870 363 -8 0 -28 -7 -46 -16z"/>
</g>
</svg>
