<svg width="469" height="449" viewBox="0 0 469 449" fill="none" xmlns="http://www.w3.org/2000/svg">
<g clip-path="url(#clip0_1_2)">
<g filter="url(#filter0_dd_1_2)">
<path d="M426.387 50.25L228 407.877L29.6126 50.25L426.387 50.25Z" stroke="#8847F1" stroke-opacity="0.79" stroke-width="4" shape-rendering="crispEdges"/>
</g>
<path d="M107.634 84.8775H78.0087L66.0087 59.9869V84.8775H40.0869V16.2525H76.4619C81.5869 16.2525 86.0712 17.1432 89.915 18.9244C93.7587 20.7057 96.7587 23.19 98.915 26.3775C101.071 29.5963 102.149 33.3307 102.149 37.5807C102.149 41.8307 101.071 45.5494 98.915 48.7369C96.7587 51.9557 93.7587 54.4557 89.915 56.2369L107.634 84.8775ZM66.0087 34.3463V44.6588H67.9306C70.6806 44.6588 72.6494 44.2682 73.8369 43.4869C75.0244 42.7057 75.6181 41.3775 75.6181 39.5025C75.6181 37.6275 75.0244 36.2994 73.8369 35.5182C72.6494 34.7369 70.6806 34.3463 67.9306 34.3463H66.0087ZM154.083 59.3307H173.583V41.7994H154.083V35.0025H175.271V16.2525H127.458V84.8775H176.771V66.1275H154.083V59.3307ZM252.704 16.2525V37.6275H238.173V84.8775H211.548V37.6275H197.017V16.2525H252.704ZM341.341 84.8775H311.716L299.716 59.9869V84.8775H273.794V16.2525H310.169C315.294 16.2525 319.779 17.1432 323.622 18.9244C327.466 20.7057 330.466 23.19 332.622 26.3775C334.779 29.5963 335.857 33.3307 335.857 37.5807C335.857 41.8307 334.779 45.5494 332.622 48.7369C330.466 51.9557 327.466 54.4557 323.622 56.2369L341.341 84.8775ZM299.716 34.3463V44.6588H301.638C304.388 44.6588 306.357 44.2682 307.544 43.4869C308.732 42.7057 309.326 41.3775 309.326 39.5025C309.326 37.6275 308.732 36.2994 307.544 35.5182C306.357 34.7369 304.388 34.3463 301.638 34.3463H299.716ZM377.853 50.8463C377.853 53.7525 378.462 56.2525 379.681 58.3463C380.9 60.44 382.525 62.0494 384.556 63.1744C386.619 64.2682 388.884 64.815 391.353 64.815C393.822 64.815 396.072 64.2682 398.103 63.1744C400.166 62.0494 401.806 60.44 403.025 58.3463C404.244 56.2525 404.853 53.7525 404.853 50.8463C404.853 47.94 404.244 45.4244 403.025 43.2994C401.806 41.1744 400.166 39.5338 398.103 38.3775C396.072 37.2213 393.822 36.6432 391.353 36.6432C388.884 36.6432 386.619 37.2213 384.556 38.3775C382.525 39.5338 380.9 41.1744 379.681 43.2994C378.462 45.4244 377.853 47.94 377.853 50.8463ZM354.791 50.94C354.791 45.44 355.744 40.4557 357.65 35.9869C359.556 31.4869 362.181 27.6432 365.525 24.4557C368.9 21.2682 372.791 18.8307 377.197 17.1432C381.634 15.4244 386.353 14.565 391.353 14.565C396.384 14.565 401.103 15.4244 405.509 17.1432C409.947 18.8307 413.837 21.2682 417.181 24.4557C420.525 27.6432 423.15 31.4869 425.056 35.9869C426.962 40.4557 427.916 45.44 427.916 50.94C427.916 56.5338 426.962 61.565 425.056 66.0338C423.181 70.4713 420.572 74.2525 417.228 77.3775C413.884 80.4713 409.994 82.8307 405.556 84.4557C401.15 86.0807 396.416 86.8932 391.353 86.8932C386.322 86.8932 381.587 86.0807 377.15 84.4557C372.744 82.8307 368.869 80.4713 365.525 77.3775C362.181 74.2525 359.556 70.4713 357.65 66.0338C355.744 61.565 354.791 56.5338 354.791 50.94Z" fill="#8ADF1F"/>
<path d="M107.634 84.8775V88.8775H114.812L111.035 82.7731L107.634 84.8775ZM78.0087 84.8775L74.4056 86.6146L75.4966 88.8775H78.0087V84.8775ZM66.0087 59.9869L69.6119 58.2498L62.0087 59.9869H66.0087ZM66.0087 84.8775V88.8775H70.0087V84.8775H66.0087ZM40.0869 84.8775H36.0869V88.8775H40.0869V84.8775ZM40.0869 16.2525V12.2525H36.0869V16.2525H40.0869ZM98.915 26.3775L102.238 24.1513L102.233 24.1438L102.228 24.1363L98.915 26.3775ZM98.915 48.7369L95.6019 46.4957L95.5968 46.5032L95.5918 46.5107L98.915 48.7369ZM89.915 56.2369L88.2331 52.6077L84.1397 54.5046L86.5133 58.3414L89.915 56.2369ZM66.0087 34.3463V30.3463H62.0087V34.3463H66.0087ZM66.0087 44.6588H62.0087V48.6588H66.0087V44.6588ZM107.634 80.8775H78.0087V88.8775H107.634V80.8775ZM81.6119 83.1404L69.6119 58.2498L62.4056 61.724L74.4056 86.6146L81.6119 83.1404ZM62.0087 59.9869V84.8775H70.0087V59.9869H62.0087ZM66.0087 80.8775H40.0869V88.8775H66.0087V80.8775ZM44.0869 84.8775V16.2525H36.0869V84.8775H44.0869ZM40.0869 20.2525H76.4619V12.2525H40.0869V20.2525ZM76.4619 20.2525C81.1257 20.2525 85.0152 21.0624 88.2331 22.5537L91.5968 15.2952C87.1273 13.2239 82.0481 12.2525 76.4619 12.2525V20.2525ZM88.2331 22.5537C91.4857 24.0609 93.8935 26.0933 95.6019 28.6188L102.228 24.1363C99.624 20.2868 96.0318 17.3504 91.5968 15.2952L88.2331 22.5537ZM95.5918 28.6038C97.2642 31.1003 98.1494 34.0432 98.1494 37.5807H106.149C106.149 32.6181 104.878 28.0923 102.238 24.1513L95.5918 28.6038ZM98.1494 37.5807C98.1494 41.1187 97.2641 44.0384 95.6019 46.4957L102.228 50.9782C104.878 47.0605 106.149 42.5427 106.149 37.5807H98.1494ZM95.5918 46.5107C93.8814 49.0638 91.4758 51.105 88.2331 52.6077L91.5968 59.8662C96.0417 57.8064 99.6361 54.8475 102.238 50.9632L95.5918 46.5107ZM86.5133 58.3414L104.232 86.982L111.035 82.7731L93.3166 54.1325L86.5133 58.3414ZM62.0087 34.3463V44.6588H70.0087V34.3463H62.0087ZM66.0087 48.6588H67.9306V40.6588H66.0087V48.6588ZM67.9306 48.6588C70.8495 48.6588 73.8236 48.2837 76.0353 46.8286L71.6384 40.1453C71.4751 40.2527 70.5118 40.6588 67.9306 40.6588V48.6588ZM76.0353 46.8286C78.6961 45.0781 79.6181 42.2446 79.6181 39.5025H71.6181C71.6181 40.0335 71.5322 40.2475 71.5211 40.2724C71.5175 40.2804 71.528 40.2557 71.56 40.2177C71.5926 40.1792 71.6239 40.1548 71.6384 40.1453L76.0353 46.8286ZM79.6181 39.5025C79.6181 36.7605 78.6961 33.927 76.0353 32.1765L71.6384 38.8598C71.6239 38.8503 71.5926 38.8259 71.56 38.7874C71.528 38.7494 71.5175 38.7246 71.5211 38.7327C71.5322 38.7576 71.6181 38.9716 71.6181 39.5025H79.6181ZM76.0353 32.1765C73.8236 30.7214 70.8495 30.3463 67.9306 30.3463V38.3463C70.5118 38.3463 71.4751 38.7524 71.6384 38.8598L76.0353 32.1765ZM67.9306 30.3463H66.0087V38.3463H67.9306V30.3463ZM154.083 59.3307V55.3307H150.083V59.3307H154.083ZM173.583 59.3307V63.3307H177.583V59.3307H173.583ZM173.583 41.7994H177.583V37.7994H173.583V41.7994ZM154.083 41.7994H150.083V45.7994H154.083V41.7994ZM154.083 35.0025V31.0025H150.083V35.0025H154.083ZM175.271 35.0025V39.0025H179.271V35.0025H175.271ZM175.271 16.2525H179.271V12.2525H175.271V16.2525ZM127.458 16.2525V12.2525H123.458V16.2525H127.458ZM127.458 84.8775H123.458V88.8775H127.458V84.8775ZM176.771 84.8775V88.8775H180.771V84.8775H176.771ZM176.771 66.1275H180.771V62.1275H176.771V66.1275ZM154.083 66.1275H150.083V70.1275H154.083V66.1275ZM154.083 63.3307H173.583V55.3307H154.083V63.3307ZM177.583 59.3307V41.7994H169.583V59.3307H177.583ZM173.583 37.7994H154.083V45.7994H173.583V37.7994ZM158.083 41.7994V35.0025H150.083V41.7994H158.083ZM154.083 39.0025H175.271V31.0025H154.083V39.0025ZM179.271 35.0025V16.2525H171.271V35.0025H179.271ZM175.271 12.2525H127.458V20.2525H175.271V12.2525ZM123.458 16.2525V84.8775H131.458V16.2525H123.458ZM127.458 88.8775H176.771V80.8775H127.458V88.8775ZM180.771 84.8775V66.1275H172.771V84.8775H180.771ZM176.771 62.1275H154.083V70.1275H176.771V62.1275ZM158.083 66.1275V59.3307H150.083V66.1275H158.083ZM252.704 16.2525H256.704V12.2525H252.704V16.2525ZM252.704 37.6275V41.6275H256.704V37.6275H252.704ZM238.173 37.6275V33.6275H234.173V37.6275H238.173ZM238.173 84.8775V88.8775H242.173V84.8775H238.173ZM211.548 84.8775H207.548V88.8775H211.548V84.8775ZM211.548 37.6275H215.548V33.6275H211.548V37.6275ZM197.017 37.6275H193.017V41.6275H197.017V37.6275ZM197.017 16.2525V12.2525H193.017V16.2525H197.017ZM248.704 16.2525V37.6275H256.704V16.2525H248.704ZM252.704 33.6275H238.173V41.6275H252.704V33.6275ZM234.173 37.6275V84.8775H242.173V37.6275H234.173ZM238.173 80.8775H211.548V88.8775H238.173V80.8775ZM215.548 84.8775V37.6275H207.548V84.8775H215.548ZM211.548 33.6275H197.017V41.6275H211.548V33.6275ZM201.017 37.6275V16.2525H193.017V37.6275H201.017ZM197.017 20.2525H252.704V12.2525H197.017V20.2525ZM341.341 84.8775V88.8775H348.519L344.743 82.7731L341.341 84.8775ZM311.716 84.8775L308.113 86.6146L309.204 88.8775H311.716V84.8775ZM299.716 59.9869L303.319 58.2498L295.716 59.9869H299.716ZM299.716 84.8775V88.8775H303.716V84.8775H299.716ZM273.794 84.8775H269.794V88.8775H273.794V84.8775ZM273.794 16.2525V12.2525H269.794V16.2525H273.794ZM332.622 26.3775L335.946 24.1513L335.941 24.1438L335.936 24.1363L332.622 26.3775ZM332.622 48.7369L329.309 46.4957L329.304 46.5032L329.299 46.5107L332.622 48.7369ZM323.622 56.2369L321.941 52.6077L317.847 54.5046L320.221 58.3414L323.622 56.2369ZM299.716 34.3463V30.3463H295.716V34.3463H299.716ZM299.716 44.6588H295.716V48.6588H299.716V44.6588ZM341.341 80.8775H311.716V88.8775H341.341V80.8775ZM315.319 83.1404L303.319 58.2498L296.113 61.724L308.113 86.6146L315.319 83.1404ZM295.716 59.9869V84.8775H303.716V59.9869H295.716ZM299.716 80.8775H273.794V88.8775H299.716V80.8775ZM277.794 84.8775V16.2525H269.794V84.8775H277.794ZM273.794 20.2525H310.169V12.2525H273.794V20.2525ZM310.169 20.2525C314.833 20.2525 318.723 21.0624 321.941 22.5537L325.304 15.2952C320.835 13.2239 315.756 12.2525 310.169 12.2525V20.2525ZM321.941 22.5537C325.193 24.0609 327.601 26.0933 329.309 28.6188L335.936 24.1363C333.332 20.2868 329.739 17.3504 325.304 15.2952L321.941 22.5537ZM329.299 28.6038C330.972 31.1003 331.857 34.0432 331.857 37.5807H339.857C339.857 32.6181 338.586 28.0923 335.946 24.1513L329.299 28.6038ZM331.857 37.5807C331.857 41.1187 330.972 44.0384 329.309 46.4957L335.936 50.9782C338.586 47.0605 339.857 42.5427 339.857 37.5807H331.857ZM329.299 46.5107C327.589 49.0638 325.183 51.105 321.941 52.6077L325.304 59.8662C329.749 57.8064 333.344 54.8475 335.946 50.9632L329.299 46.5107ZM320.221 58.3414L337.94 86.982L344.743 82.7731L327.024 54.1325L320.221 58.3414ZM295.716 34.3463V44.6588H303.716V34.3463H295.716ZM299.716 48.6588H301.638V40.6588H299.716V48.6588ZM301.638 48.6588C304.557 48.6588 307.531 48.2837 309.743 46.8286L305.346 40.1453C305.183 40.2527 304.219 40.6588 301.638 40.6588V48.6588ZM309.743 46.8286C312.404 45.0781 313.326 42.2446 313.326 39.5025H305.326C305.326 40.0335 305.24 40.2475 305.229 40.2724C305.225 40.2804 305.235 40.2557 305.268 40.2177C305.3 40.1792 305.331 40.1548 305.346 40.1453L309.743 46.8286ZM313.326 39.5025C313.326 36.7605 312.404 33.927 309.743 32.1765L305.346 38.8598C305.331 38.8503 305.3 38.8259 305.268 38.7874C305.235 38.7494 305.225 38.7246 305.229 38.7327C305.24 38.7576 305.326 38.9716 305.326 39.5025H313.326ZM309.743 32.1765C307.531 30.7214 304.557 30.3463 301.638 30.3463V38.3463C304.219 38.3463 305.183 38.7524 305.346 38.8598L309.743 32.1765ZM301.638 30.3463H299.716V38.3463H301.638V30.3463ZM384.556 63.1744L382.618 66.6736L382.65 66.6912L382.682 66.7083L384.556 63.1744ZM398.103 63.1744L399.999 66.6963L400.009 66.6912L400.018 66.686L398.103 63.1744ZM398.103 38.3775L396.124 41.8538L396.136 41.8603L396.147 41.8667L398.103 38.3775ZM384.556 38.3775L382.6 34.8884L382.589 34.8948L382.577 34.9013L384.556 38.3775ZM357.65 35.9869L361.329 37.5564L361.333 37.5472L357.65 35.9869ZM365.525 24.4557L362.778 21.5476L362.772 21.554L362.765 21.5604L365.525 24.4557ZM377.197 17.1432L378.627 20.8786L378.634 20.8759L378.642 20.8732L377.197 17.1432ZM405.509 17.1432L404.056 20.8697L404.072 20.8759L404.088 20.882L405.509 17.1432ZM425.056 35.9869L421.373 37.5472L421.377 37.5564L425.056 35.9869ZM425.056 66.0338L421.377 64.4643L421.372 64.4769L425.056 66.0338ZM417.228 77.3775L419.945 80.3136L419.952 80.3068L419.959 80.3L417.228 77.3775ZM405.556 84.4557L404.181 80.6996L404.172 80.7028L405.556 84.4557ZM377.15 84.4557L375.766 88.2086L375.774 88.2117L377.15 84.4557ZM365.525 77.3775L362.794 80.3L362.801 80.3068L362.808 80.3136L365.525 77.3775ZM357.65 66.0338L353.971 67.6033L353.975 67.6126L357.65 66.0338ZM373.853 50.8463C373.853 54.3181 374.585 57.5423 376.224 60.3586L383.138 56.334C382.34 54.9628 381.853 53.187 381.853 50.8463H373.853ZM376.224 60.3586C377.789 63.0476 379.928 65.1835 382.618 66.6736L386.494 59.6753C385.122 58.9153 384.01 57.8325 383.138 56.334L376.224 60.3586ZM382.682 66.7083C385.355 68.1258 388.27 68.815 391.353 68.815V60.815C389.499 60.815 387.882 60.4106 386.43 59.6406L382.682 66.7083ZM391.353 68.815C394.436 68.815 397.345 68.1258 399.999 66.6963L396.207 59.6525C394.799 60.4106 393.208 60.815 391.353 60.815V68.815ZM400.018 66.686C402.743 65.2001 404.908 63.0628 406.482 60.3586L399.568 56.334C398.705 57.8173 397.588 58.8988 396.188 59.6628L400.018 66.686ZM406.482 60.3586C408.121 57.5423 408.853 54.3181 408.853 50.8463H400.853C400.853 53.187 400.366 54.9628 399.568 56.334L406.482 60.3586ZM408.853 50.8463C408.853 47.3724 408.121 44.1441 406.495 41.3094L399.555 45.2895C400.367 46.7047 400.853 48.5076 400.853 50.8463H408.853ZM406.495 41.3094C404.93 38.5807 402.776 36.4114 400.059 34.8884L396.147 41.8667C397.555 42.6562 398.683 43.7681 399.555 45.2895L406.495 41.3094ZM400.082 34.9013C397.413 33.3823 394.475 32.6432 391.353 32.6432V40.6432C393.168 40.6432 394.73 41.0603 396.124 41.8538L400.082 34.9013ZM391.353 32.6432C388.231 32.6432 385.287 33.3822 382.6 34.8884L386.512 41.8667C387.95 41.0604 389.538 40.6432 391.353 40.6432V32.6432ZM382.577 34.9013C379.895 36.4282 377.768 38.5958 376.211 41.3094L383.151 45.2895C384.032 43.753 385.155 42.6394 386.535 41.8538L382.577 34.9013ZM376.211 41.3094C374.586 44.1441 373.853 47.3724 373.853 50.8463H381.853C381.853 48.5076 382.339 46.7047 383.151 45.2895L376.211 41.3094ZM358.791 50.94C358.791 45.9084 359.661 41.4675 361.329 37.5564L353.971 34.4175C351.827 39.4438 350.791 44.9717 350.791 50.94H358.791ZM361.333 37.5472C363.039 33.5209 365.36 30.1396 368.285 27.3509L362.765 21.5604C359.003 25.1468 356.074 29.4529 353.967 34.4267L361.333 37.5472ZM368.271 27.3637C371.26 24.5414 374.701 22.3822 378.627 20.8786L375.766 13.4077C370.88 15.2792 366.54 17.995 362.778 21.5476L368.271 27.3637ZM378.642 20.8732C382.595 19.3418 386.822 18.565 391.353 18.565V10.565C385.884 10.565 380.673 11.507 375.752 13.4132L378.642 20.8732ZM391.353 18.565C395.919 18.565 400.142 19.343 404.056 20.8697L406.963 13.4166C402.064 11.5059 396.85 10.565 391.353 10.565V18.565ZM404.088 20.882C408.041 22.3855 411.474 24.5412 414.421 27.3509L419.941 21.5604C416.201 17.9952 411.852 15.2758 406.931 13.4044L404.088 20.882ZM414.421 27.3509C417.347 30.1396 419.667 33.5209 421.373 37.5472L428.739 34.4267C426.632 29.4529 423.703 25.1468 419.941 21.5604L414.421 27.3509ZM421.377 37.5564C423.045 41.4675 423.916 45.9084 423.916 50.94H431.916C431.916 44.9717 430.88 39.4438 428.735 34.4175L421.377 37.5564ZM423.916 50.94C423.916 56.0754 423.042 60.5612 421.377 64.4643L428.735 67.6033C430.883 62.5689 431.916 56.9922 431.916 50.94H423.916ZM421.372 64.4769C419.703 68.4251 417.409 71.7334 414.497 74.4551L419.959 80.3C423.735 76.7717 426.659 72.5175 428.741 67.5907L421.372 64.4769ZM414.512 74.4415C411.571 77.1624 408.14 79.2496 404.181 80.6996L406.932 88.2117C411.847 86.4117 416.198 83.7802 419.945 80.3136L414.512 74.4415ZM404.172 80.7028C400.242 82.152 395.98 82.8932 391.353 82.8932V90.8932C396.851 90.8932 402.057 90.0093 406.94 88.2086L404.172 80.7028ZM391.353 82.8932C386.761 82.8932 382.494 82.1531 378.525 80.6996L375.774 88.2117C380.68 90.0083 385.883 90.8932 391.353 90.8932V82.8932ZM378.534 80.7028C374.606 79.254 371.187 77.1669 368.242 74.4415L362.808 80.3136C366.55 83.7757 370.882 86.4073 375.766 88.2086L378.534 80.7028ZM368.256 74.4551C365.339 71.7286 363.025 68.4128 361.325 64.455L353.975 67.6126C356.087 72.5298 359.024 76.7765 362.794 80.3L368.256 74.4551ZM361.329 64.4643C359.664 60.5612 358.791 56.0754 358.791 50.94H350.791C350.791 56.9922 351.823 62.5689 353.971 67.6033L361.329 64.4643Z" fill="#F06396"/>
<path d="M110.972 314.481L58.4852 242.022L70.7173 233.161L93.4691 264.571L129.44 238.515L106.688 207.106L118.92 198.245L171.407 270.705L159.175 279.565L137.699 249.918L101.729 275.974L123.204 305.621L110.972 314.481Z" fill="#4CF0B5"/>
<path d="M110.972 314.481L107.733 316.828L110.079 320.067L113.319 317.721L110.972 314.481ZM58.4852 242.022L56.1387 238.782L52.8993 241.129L55.2458 244.368L58.4852 242.022ZM70.7173 233.161L73.9567 230.815L71.6102 227.575L68.3707 229.922L70.7173 233.161ZM93.4691 264.571L90.2296 266.917L92.5762 270.157L95.8156 267.81L93.4691 264.571ZM129.44 238.515L131.786 241.755L135.026 239.408L132.679 236.169L129.44 238.515ZM106.688 207.106L104.341 203.866L101.102 206.213L103.448 209.452L106.688 207.106ZM118.92 198.245L122.159 195.899L119.813 192.659L116.573 195.006L118.92 198.245ZM171.407 270.705L173.753 273.944L176.993 271.598L174.646 268.358L171.407 270.705ZM159.175 279.565L155.935 281.912L158.282 285.151L161.521 282.805L159.175 279.565ZM137.699 249.918L140.939 247.571L138.592 244.332L135.353 246.678L137.699 249.918ZM101.729 275.974L99.3823 272.734L96.1429 275.081L98.4894 278.32L101.729 275.974ZM123.204 305.621L125.551 308.86L128.79 306.514L126.444 303.274L123.204 305.621ZM114.211 312.135L61.7246 239.675L55.2458 244.368L107.733 316.828L114.211 312.135ZM60.8317 245.261L73.0638 236.401L68.3707 229.922L56.1387 238.782L60.8317 245.261ZM67.4778 235.508L90.2296 266.917L96.7085 262.224L73.9567 230.815L67.4778 235.508ZM95.8156 267.81L131.786 241.755L127.093 235.276L91.1226 261.331L95.8156 267.81ZM132.679 236.169L109.927 204.759L103.448 209.452L126.2 240.862L132.679 236.169ZM109.034 210.345L121.266 201.485L116.573 195.006L104.341 203.866L109.034 210.345ZM115.68 200.592L168.167 273.051L174.646 268.358L122.159 195.899L115.68 200.592ZM169.06 267.465L156.828 276.326L161.521 282.805L173.753 273.944L169.06 267.465ZM162.414 277.219L140.939 247.571L134.46 252.264L155.935 281.912L162.414 277.219ZM135.353 246.678L99.3823 272.734L104.075 279.213L140.046 253.157L135.353 246.678ZM98.4894 278.32L119.965 307.967L126.444 303.274L104.968 273.627L98.4894 278.32ZM120.858 302.381L108.626 311.242L113.319 317.721L125.551 308.86L120.858 302.381Z" fill="#1FA3EE"/>
<path d="M164.782 182.042L179.342 178.025L203.135 264.276L188.574 268.292L164.782 182.042Z" fill="#4CF0B5"/>
<path d="M164.782 182.042L163.718 178.186L159.862 179.249L160.926 183.105L164.782 182.042ZM179.342 178.025L183.198 176.961L182.134 173.105L178.278 174.169L179.342 178.025ZM203.135 264.276L204.198 268.132L208.054 267.068L206.991 263.212L203.135 264.276ZM188.574 268.292L184.719 269.356L185.782 273.212L189.638 272.148L188.574 268.292ZM165.845 185.898L180.406 181.881L178.278 174.169L163.718 178.186L165.845 185.898ZM175.486 179.089L199.279 265.339L206.991 263.212L183.198 176.961L175.486 179.089ZM202.071 260.42L187.511 264.436L189.638 272.148L204.198 268.132L202.071 260.42ZM192.43 267.228L168.638 180.978L160.926 183.105L184.719 269.356L192.43 267.228Z" fill="#1FA3EE"/>
<path d="M220.131 228.621L220.046 215.181L262.541 214.913L262.626 228.353L220.131 228.621Z" fill="#4CF0B5"/>
<path d="M220.131 228.621L216.131 228.646L216.156 232.646L220.156 232.621L220.131 228.621ZM220.046 215.181L220.021 211.182L216.021 211.207L216.046 215.207L220.046 215.181ZM262.541 214.913L266.541 214.888L266.516 210.888L262.516 210.913L262.541 214.913ZM262.626 228.353L262.651 232.353L266.651 232.328L266.626 228.328L262.626 228.353ZM224.13 228.596L224.046 215.156L216.046 215.207L216.131 228.646L224.13 228.596ZM220.071 219.181L262.566 218.913L262.516 210.913L220.021 211.182L220.071 219.181ZM258.541 214.939L258.626 228.378L266.626 228.328L266.541 214.888L258.541 214.939ZM262.6 224.353L220.105 224.621L220.156 232.621L262.651 232.353L262.6 224.353Z" fill="#1FA3EE"/>
<path d="M316.442 195.576L308.085 218.687L345.4 232.18L340.656 245.301L303.341 231.808L290.805 266.475L276.601 261.339L307.026 177.198L363.12 197.482L358.211 210.679L316.442 195.576Z" fill="#4CF0B5"/>
<path d="M316.442 195.576L317.802 191.814L314.041 190.454L312.68 194.215L316.442 195.576ZM308.085 218.687L304.323 217.327L302.963 221.088L306.725 222.449L308.085 218.687ZM345.4 232.18L349.162 233.54L350.522 229.779L346.761 228.419L345.4 232.18ZM340.656 245.301L339.296 249.062L343.057 250.423L344.418 246.661L340.656 245.301ZM303.341 231.808L304.701 228.046L300.939 226.686L299.579 230.447L303.341 231.808ZM290.805 266.475L289.445 270.236L293.206 271.597L294.567 267.835L290.805 266.475ZM276.601 261.339L272.84 259.978L271.479 263.74L275.241 265.1L276.601 261.339ZM307.026 177.198L308.386 173.437L304.625 172.077L303.264 175.838L307.026 177.198ZM363.12 197.482L366.869 198.876L368.276 195.093L364.48 193.72L363.12 197.482ZM358.211 210.679L356.851 214.441L360.579 215.789L361.96 212.074L358.211 210.679ZM312.68 194.215L304.323 217.327L311.847 220.047L320.204 196.936L312.68 194.215ZM306.725 222.449L344.04 235.942L346.761 228.419L309.445 214.925L306.725 222.449ZM341.639 230.82L336.894 243.941L344.418 246.661L349.162 233.54L341.639 230.82ZM342.016 241.539L304.701 228.046L301.98 235.569L339.296 249.062L342.016 241.539ZM299.579 230.447L287.043 265.114L294.567 267.835L307.102 233.168L299.579 230.447ZM292.165 262.713L277.961 257.577L275.241 265.1L289.445 270.236L292.165 262.713ZM280.363 262.699L310.788 178.559L303.264 175.838L272.84 259.978L280.363 262.699ZM305.666 180.96L361.759 201.243L364.48 193.72L308.386 173.437L305.666 180.96ZM359.37 196.087L354.462 209.285L361.96 212.074L366.869 198.876L359.37 196.087ZM359.571 206.918L317.802 191.814L315.082 199.337L356.851 214.441L359.571 206.918Z" fill="#1FA3EE"/>
<path d="M395.339 219.476L407.34 228.647L353.012 299.737L341.011 290.565L395.339 219.476Z" fill="#4CF0B5"/>
<path d="M395.339 219.476L397.768 216.298L394.59 213.869L392.161 217.047L395.339 219.476ZM407.34 228.647L410.518 231.076L412.947 227.898L409.769 225.469L407.34 228.647ZM353.012 299.737L350.583 302.915L353.762 305.344L356.19 302.165L353.012 299.737ZM341.011 290.565L337.833 288.137L335.404 291.315L338.583 293.744L341.011 290.565ZM392.91 222.654L404.911 231.825L409.769 225.469L397.768 216.298L392.91 222.654ZM404.162 226.218L349.834 297.308L356.19 302.165L410.518 231.076L404.162 226.218ZM355.441 296.558L343.44 287.387L338.583 293.744L350.583 302.915L355.441 296.558ZM344.19 292.994L398.517 221.905L392.161 217.047L337.833 288.137L344.19 292.994Z" fill="#1FA3EE"/>
</g>
<defs>
<filter id="filter0_dd_1_2" x="21.2161" y="43.25" width="413.568" height="376.75" filterUnits="userSpaceOnUse" color-interpolation-filters="sRGB">
<feFlood flood-opacity="0" result="BackgroundImageFix"/>
<feColorMatrix in="SourceAlpha" type="matrix" values="0 0 0 0 0 0 0 0 0 0 0 0 0 0 0 0 0 0 127 0" result="hardAlpha"/>
<feOffset dy="4"/>
<feGaussianBlur stdDeviation="2"/>
<feComposite in2="hardAlpha" operator="out"/>
<feColorMatrix type="matrix" values="0 0 0 0 0 0 0 0 0 0 0 0 0 0 0 0 0 0 0.25 0"/>
<feBlend mode="normal" in2="BackgroundImageFix" result="effect1_dropShadow_1_2"/>
<feColorMatrix in="SourceAlpha" type="matrix" values="0 0 0 0 0 0 0 0 0 0 0 0 0 0 0 0 0 0 127 0" result="hardAlpha"/>
<feOffset/>
<feGaussianBlur stdDeviation="2.5"/>
<feComposite in2="hardAlpha" operator="out"/>
<feColorMatrix type="matrix" values="0 0 0 0 0.941667 0 0 0 0 0.388438 0 0 0 0 0.5876 0 0 0 1 0"/>
<feBlend mode="normal" in2="effect1_dropShadow_1_2" result="effect2_dropShadow_1_2"/>
<feBlend mode="normal" in="SourceGraphic" in2="effect2_dropShadow_1_2" result="shape"/>
</filter>
<clipPath id="clip0_1_2">
<rect width="469" height="449" fill="white"/>
</clipPath>
</defs>
</svg>
