<svg width="420" height="428" viewBox="0 0 420 428" fill="none" xmlns="http://www.w3.org/2000/svg">
<g clip-path="url(#clip0_1_2)">
<g filter="url(#filter0_dd_1_2)">
<path d="M408.387 50.25L210 407.877L11.6126 50.25L408.387 50.25Z" stroke="black" stroke-width="4" shape-rendering="crispEdges"/>
</g>
<path d="M89.6337 84.8775H60.0087L48.0087 59.9869V84.8775H22.0869V16.2525H58.4619C63.5869 16.2525 68.0712 17.1432 71.915 18.9244C75.7587 20.7057 78.7587 23.19 80.915 26.3775C83.0712 29.5963 84.1494 33.3307 84.1494 37.5807C84.1494 41.8307 83.0712 45.5494 80.915 48.7369C78.7587 51.9557 75.7587 54.4557 71.915 56.2369L89.6337 84.8775ZM48.0087 34.3463V44.6588H49.9306C52.6806 44.6588 54.6494 44.2682 55.8369 43.4869C57.0244 42.7057 57.6181 41.3775 57.6181 39.5025C57.6181 37.6275 57.0244 36.2994 55.8369 35.5182C54.6494 34.7369 52.6806 34.3463 49.9306 34.3463H48.0087ZM136.083 59.3307V66.1275H158.771V84.8775H109.458V16.2525H157.271V35.0025H136.083V41.7994H155.583V59.3307H136.083ZM234.704 16.2525V37.6275H220.173V84.8775H193.548V37.6275H179.017V16.2525H234.704ZM323.341 84.8775H293.716L281.716 59.9869V84.8775H255.794V16.2525H292.169C297.294 16.2525 301.779 17.1432 305.622 18.9244C309.466 20.7057 312.466 23.19 314.622 26.3775C316.779 29.5963 317.857 33.3307 317.857 37.5807C317.857 41.8307 316.779 45.5494 314.622 48.7369C312.466 51.9557 309.466 54.4557 305.622 56.2369L323.341 84.8775ZM281.716 34.3463V44.6588H283.638C286.388 44.6588 288.357 44.2682 289.544 43.4869C290.732 42.7057 291.326 41.3775 291.326 39.5025C291.326 37.6275 290.732 36.2994 289.544 35.5182C288.357 34.7369 286.388 34.3463 283.638 34.3463H281.716ZM359.853 50.8463C359.853 53.7525 360.462 56.2525 361.681 58.3463C362.9 60.44 364.525 62.0494 366.556 63.1744C368.619 64.2682 370.884 64.815 373.353 64.815C375.822 64.815 378.072 64.2682 380.103 63.1744C382.166 62.0494 383.806 60.44 385.025 58.3463C386.244 56.2525 386.853 53.7525 386.853 50.8463C386.853 47.94 386.244 45.4244 385.025 43.2994C383.806 41.1744 382.166 39.5338 380.103 38.3775C378.072 37.2213 375.822 36.6432 373.353 36.6432C370.884 36.6432 368.619 37.2213 366.556 38.3775C364.525 39.5338 362.9 41.1744 361.681 43.2994C360.462 45.4244 359.853 47.94 359.853 50.8463ZM336.791 50.94C336.791 45.44 337.744 40.4557 339.65 35.9869C341.556 31.4869 344.181 27.6432 347.525 24.4557C350.9 21.2682 354.791 18.8307 359.197 17.1432C363.634 15.4244 368.353 14.565 373.353 14.565C378.384 14.565 383.103 15.4244 387.509 17.1432C391.947 18.8307 395.837 21.2682 399.181 24.4557C402.525 27.6432 405.15 31.4869 407.056 35.9869C408.962 40.4557 409.916 45.44 409.916 50.94C409.916 56.5338 408.962 61.565 407.056 66.0338C405.181 70.4713 402.572 74.2525 399.228 77.3775C395.884 80.4713 391.994 82.8307 387.556 84.4557C383.15 86.0807 378.416 86.8932 373.353 86.8932C368.322 86.8932 363.587 86.0807 359.15 84.4557C354.744 82.8307 350.869 80.4713 347.525 77.3775C344.181 74.2525 341.556 70.4713 339.65 66.0338C337.744 61.565 336.791 56.5338 336.791 50.94Z" fill="#FCE3BD"/>
<path d="M89.6337 84.8775V88.8775H96.812L93.0354 82.7731L89.6337 84.8775ZM60.0087 84.8775L56.4056 86.6146L57.4966 88.8775H60.0087V84.8775ZM48.0087 59.9869L51.6119 58.2498L44.0087 59.9869H48.0087ZM48.0087 84.8775V88.8775H52.0087V84.8775H48.0087ZM22.0869 84.8775H18.0869V88.8775H22.0869V84.8775ZM22.0869 16.2525V12.2525H18.0869V16.2525H22.0869ZM80.915 26.3775L84.2382 24.1513L84.2332 24.1438L84.2281 24.1363L80.915 26.3775ZM80.915 48.7369L77.6019 46.4957L77.5968 46.5032L77.5918 46.5107L80.915 48.7369ZM71.915 56.2369L70.2331 52.6077L66.1397 54.5046L68.5133 58.3414L71.915 56.2369ZM48.0087 34.3463V30.3463H44.0087V34.3463H48.0087ZM48.0087 44.6588H44.0087V48.6588H48.0087V44.6588ZM89.6337 80.8775H60.0087V88.8775H89.6337V80.8775ZM63.6119 83.1404L51.6119 58.2498L44.4056 61.724L56.4056 86.6146L63.6119 83.1404ZM44.0087 59.9869V84.8775H52.0087V59.9869H44.0087ZM48.0087 80.8775H22.0869V88.8775H48.0087V80.8775ZM26.0869 84.8775V16.2525H18.0869V84.8775H26.0869ZM22.0869 20.2525H58.4619V12.2525H22.0869V20.2525ZM58.4619 20.2525C63.1257 20.2525 67.0152 21.0624 70.2331 22.5537L73.5968 15.2952C69.1273 13.2239 64.0481 12.2525 58.4619 12.2525V20.2525ZM70.2331 22.5537C73.4857 24.0609 75.8935 26.0933 77.6019 28.6188L84.2281 24.1363C81.624 20.2868 78.0318 17.3504 73.5968 15.2952L70.2331 22.5537ZM77.5918 28.6038C79.2642 31.1003 80.1494 34.0432 80.1494 37.5807H88.1494C88.1494 32.6181 86.8783 28.0923 84.2382 24.1513L77.5918 28.6038ZM80.1494 37.5807C80.1494 41.1187 79.2641 44.0384 77.6019 46.4957L84.2281 50.9782C86.8783 47.0605 88.1494 42.5427 88.1494 37.5807H80.1494ZM77.5918 46.5107C75.8814 49.0638 73.4758 51.105 70.2331 52.6077L73.5968 59.8662C78.0417 57.8064 81.6361 54.8475 84.2382 50.9632L77.5918 46.5107ZM68.5133 58.3414L86.2321 86.982L93.0354 82.7731L75.3166 54.1325L68.5133 58.3414ZM44.0087 34.3463V44.6588H52.0087V34.3463H44.0087ZM48.0087 48.6588H49.9306V40.6588H48.0087V48.6588ZM49.9306 48.6588C52.8495 48.6588 55.8236 48.2837 58.0353 46.8286L53.6384 40.1453C53.4751 40.2527 52.5118 40.6588 49.9306 40.6588V48.6588ZM58.0353 46.8286C60.6961 45.0781 61.6181 42.2446 61.6181 39.5025H53.6181C53.6181 40.0335 53.5322 40.2475 53.5211 40.2724C53.5175 40.2804 53.528 40.2557 53.56 40.2177C53.5926 40.1792 53.6239 40.1548 53.6384 40.1453L58.0353 46.8286ZM61.6181 39.5025C61.6181 36.7605 60.6961 33.927 58.0353 32.1765L53.6384 38.8598C53.6239 38.8503 53.5926 38.8259 53.56 38.7874C53.528 38.7494 53.5175 38.7246 53.5211 38.7327C53.5322 38.7576 53.6181 38.9716 53.6181 39.5025H61.6181ZM58.0353 32.1765C55.8236 30.7214 52.8495 30.3463 49.9306 30.3463V38.3463C52.5118 38.3463 53.4751 38.7524 53.6384 38.8598L58.0353 32.1765ZM49.9306 30.3463H48.0087V38.3463H49.9306V30.3463ZM136.083 59.3307V55.3307H132.083V59.3307H136.083ZM136.083 66.1275H132.083V70.1275H136.083V66.1275ZM158.771 66.1275H162.771V62.1275H158.771V66.1275ZM158.771 84.8775V88.8775H162.771V84.8775H158.771ZM109.458 84.8775H105.458V88.8775H109.458V84.8775ZM109.458 16.2525V12.2525H105.458V16.2525H109.458ZM157.271 16.2525H161.271V12.2525H157.271V16.2525ZM157.271 35.0025V39.0025H161.271V35.0025H157.271ZM136.083 35.0025V31.0025H132.083V35.0025H136.083ZM136.083 41.7994H132.083V45.7994H136.083V41.7994ZM155.583 41.7994H159.583V37.7994H155.583V41.7994ZM155.583 59.3307V63.3307H159.583V59.3307H155.583ZM132.083 59.3307V66.1275H140.083V59.3307H132.083ZM136.083 70.1275H158.771V62.1275H136.083V70.1275ZM154.771 66.1275V84.8775H162.771V66.1275H154.771ZM158.771 80.8775H109.458V88.8775H158.771V80.8775ZM113.458 84.8775V16.2525H105.458V84.8775H113.458ZM109.458 20.2525H157.271V12.2525H109.458V20.2525ZM153.271 16.2525V35.0025H161.271V16.2525H153.271ZM157.271 31.0025H136.083V39.0025H157.271V31.0025ZM132.083 35.0025V41.7994H140.083V35.0025H132.083ZM136.083 45.7994H155.583V37.7994H136.083V45.7994ZM151.583 41.7994V59.3307H159.583V41.7994H151.583ZM155.583 55.3307H136.083V63.3307H155.583V55.3307ZM234.704 16.2525H238.704V12.2525H234.704V16.2525ZM234.704 37.6275V41.6275H238.704V37.6275H234.704ZM220.173 37.6275V33.6275H216.173V37.6275H220.173ZM220.173 84.8775V88.8775H224.173V84.8775H220.173ZM193.548 84.8775H189.548V88.8775H193.548V84.8775ZM193.548 37.6275H197.548V33.6275H193.548V37.6275ZM179.017 37.6275H175.017V41.6275H179.017V37.6275ZM179.017 16.2525V12.2525H175.017V16.2525H179.017ZM230.704 16.2525V37.6275H238.704V16.2525H230.704ZM234.704 33.6275H220.173V41.6275H234.704V33.6275ZM216.173 37.6275V84.8775H224.173V37.6275H216.173ZM220.173 80.8775H193.548V88.8775H220.173V80.8775ZM197.548 84.8775V37.6275H189.548V84.8775H197.548ZM193.548 33.6275H179.017V41.6275H193.548V33.6275ZM183.017 37.6275V16.2525H175.017V37.6275H183.017ZM179.017 20.2525H234.704V12.2525H179.017V20.2525ZM323.341 84.8775V88.8775H330.519L326.743 82.7731L323.341 84.8775ZM293.716 84.8775L290.113 86.6146L291.204 88.8775H293.716V84.8775ZM281.716 59.9869L285.319 58.2498L277.716 59.9869H281.716ZM281.716 84.8775V88.8775H285.716V84.8775H281.716ZM255.794 84.8775H251.794V88.8775H255.794V84.8775ZM255.794 16.2525V12.2525H251.794V16.2525H255.794ZM314.622 26.3775L317.946 24.1513L317.941 24.1438L317.936 24.1363L314.622 26.3775ZM314.622 48.7369L311.309 46.4957L311.304 46.5032L311.299 46.5107L314.622 48.7369ZM305.622 56.2369L303.941 52.6077L299.847 54.5046L302.221 58.3414L305.622 56.2369ZM281.716 34.3463V30.3463H277.716V34.3463H281.716ZM281.716 44.6588H277.716V48.6588H281.716V44.6588ZM323.341 80.8775H293.716V88.8775H323.341V80.8775ZM297.319 83.1404L285.319 58.2498L278.113 61.724L290.113 86.6146L297.319 83.1404ZM277.716 59.9869V84.8775H285.716V59.9869H277.716ZM281.716 80.8775H255.794V88.8775H281.716V80.8775ZM259.794 84.8775V16.2525H251.794V84.8775H259.794ZM255.794 20.2525H292.169V12.2525H255.794V20.2525ZM292.169 20.2525C296.833 20.2525 300.723 21.0624 303.941 22.5537L307.304 15.2952C302.835 13.2239 297.756 12.2525 292.169 12.2525V20.2525ZM303.941 22.5537C307.193 24.0609 309.601 26.0933 311.309 28.6188L317.936 24.1363C315.332 20.2868 311.739 17.3504 307.304 15.2952L303.941 22.5537ZM311.299 28.6038C312.972 31.1003 313.857 34.0432 313.857 37.5807H321.857C321.857 32.6181 320.586 28.0923 317.946 24.1513L311.299 28.6038ZM313.857 37.5807C313.857 41.1187 312.972 44.0384 311.309 46.4957L317.936 50.9782C320.586 47.0605 321.857 42.5427 321.857 37.5807H313.857ZM311.299 46.5107C309.589 49.0638 307.183 51.105 303.941 52.6077L307.304 59.8662C311.749 57.8064 315.344 54.8475 317.946 50.9632L311.299 46.5107ZM302.221 58.3414L319.94 86.982L326.743 82.7731L309.024 54.1325L302.221 58.3414ZM277.716 34.3463V44.6588H285.716V34.3463H277.716ZM281.716 48.6588H283.638V40.6588H281.716V48.6588ZM283.638 48.6588C286.557 48.6588 289.531 48.2837 291.743 46.8286L287.346 40.1453C287.183 40.2527 286.219 40.6588 283.638 40.6588V48.6588ZM291.743 46.8286C294.404 45.0781 295.326 42.2446 295.326 39.5025H287.326C287.326 40.0335 287.24 40.2475 287.229 40.2724C287.225 40.2804 287.235 40.2557 287.268 40.2177C287.3 40.1792 287.331 40.1548 287.346 40.1453L291.743 46.8286ZM295.326 39.5025C295.326 36.7605 294.404 33.927 291.743 32.1765L287.346 38.8598C287.331 38.8503 287.3 38.8259 287.268 38.7874C287.235 38.7494 287.225 38.7246 287.229 38.7327C287.24 38.7576 287.326 38.9716 287.326 39.5025H295.326ZM291.743 32.1765C289.531 30.7214 286.557 30.3463 283.638 30.3463V38.3463C286.219 38.3463 287.183 38.7524 287.346 38.8598L291.743 32.1765ZM283.638 30.3463H281.716V38.3463H283.638V30.3463ZM366.556 63.1744L364.618 66.6736L364.65 66.6912L364.682 66.7083L366.556 63.1744ZM380.103 63.1744L381.999 66.6963L382.009 66.6912L382.018 66.686L380.103 63.1744ZM380.103 38.3775L378.124 41.8538L378.136 41.8603L378.147 41.8667L380.103 38.3775ZM366.556 38.3775L364.6 34.8884L364.589 34.8948L364.577 34.9013L366.556 38.3775ZM339.65 35.9869L343.329 37.5564L343.333 37.5472L339.65 35.9869ZM347.525 24.4557L344.778 21.5476L344.772 21.554L344.765 21.5604L347.525 24.4557ZM359.197 17.1432L360.627 20.8786L360.634 20.8759L360.642 20.8732L359.197 17.1432ZM387.509 17.1432L386.056 20.8697L386.072 20.8759L386.088 20.882L387.509 17.1432ZM407.056 35.9869L403.373 37.5472L403.377 37.5564L407.056 35.9869ZM407.056 66.0338L403.377 64.4643L403.372 64.4769L407.056 66.0338ZM399.228 77.3775L401.945 80.3136L401.952 80.3068L401.959 80.3L399.228 77.3775ZM387.556 84.4557L386.181 80.6996L386.172 80.7028L387.556 84.4557ZM359.15 84.4557L357.766 88.2086L357.774 88.2117L359.15 84.4557ZM347.525 77.3775L344.794 80.3L344.801 80.3068L344.808 80.3136L347.525 77.3775ZM339.65 66.0338L335.971 67.6033L335.975 67.6126L339.65 66.0338ZM355.853 50.8463C355.853 54.3181 356.585 57.5423 358.224 60.3586L365.138 56.334C364.34 54.9628 363.853 53.187 363.853 50.8463H355.853ZM358.224 60.3586C359.789 63.0476 361.928 65.1835 364.618 66.6736L368.494 59.6753C367.122 58.9153 366.01 57.8325 365.138 56.334L358.224 60.3586ZM364.682 66.7083C367.355 68.1258 370.27 68.815 373.353 68.815V60.815C371.499 60.815 369.882 60.4106 368.43 59.6406L364.682 66.7083ZM373.353 68.815C376.436 68.815 379.345 68.1258 381.999 66.6963L378.207 59.6525C376.799 60.4106 375.208 60.815 373.353 60.815V68.815ZM382.018 66.686C384.743 65.2001 386.908 63.0628 388.482 60.3586L381.568 56.334C380.705 57.8173 379.588 58.8988 378.188 59.6628L382.018 66.686ZM388.482 60.3586C390.121 57.5423 390.853 54.3181 390.853 50.8463H382.853C382.853 53.187 382.366 54.9628 381.568 56.334L388.482 60.3586ZM390.853 50.8463C390.853 47.3724 390.121 44.1441 388.495 41.3094L381.555 45.2895C382.367 46.7047 382.853 48.5076 382.853 50.8463H390.853ZM388.495 41.3094C386.93 38.5807 384.776 36.4114 382.059 34.8884L378.147 41.8667C379.555 42.6562 380.683 43.7681 381.555 45.2895L388.495 41.3094ZM382.082 34.9013C379.413 33.3823 376.475 32.6432 373.353 32.6432V40.6432C375.168 40.6432 376.73 41.0603 378.124 41.8538L382.082 34.9013ZM373.353 32.6432C370.231 32.6432 367.287 33.3822 364.6 34.8884L368.512 41.8667C369.95 41.0604 371.538 40.6432 373.353 40.6432V32.6432ZM364.577 34.9013C361.895 36.4282 359.768 38.5958 358.211 41.3094L365.151 45.2895C366.032 43.753 367.155 42.6394 368.535 41.8538L364.577 34.9013ZM358.211 41.3094C356.586 44.1441 355.853 47.3724 355.853 50.8463H363.853C363.853 48.5076 364.339 46.7047 365.151 45.2895L358.211 41.3094ZM340.791 50.94C340.791 45.9084 341.661 41.4675 343.329 37.5564L335.971 34.4175C333.827 39.4438 332.791 44.9717 332.791 50.94H340.791ZM343.333 37.5472C345.039 33.5209 347.36 30.1396 350.285 27.3509L344.765 21.5604C341.003 25.1468 338.074 29.4529 335.967 34.4267L343.333 37.5472ZM350.271 27.3637C353.26 24.5414 356.701 22.3822 360.627 20.8786L357.766 13.4077C352.88 15.2792 348.54 17.995 344.778 21.5476L350.271 27.3637ZM360.642 20.8732C364.595 19.3418 368.822 18.565 373.353 18.565V10.565C367.884 10.565 362.673 11.507 357.752 13.4132L360.642 20.8732ZM373.353 18.565C377.919 18.565 382.142 19.343 386.056 20.8697L388.963 13.4166C384.064 11.5059 378.85 10.565 373.353 10.565V18.565ZM386.088 20.882C390.041 22.3855 393.474 24.5412 396.421 27.3509L401.941 21.5604C398.201 17.9952 393.852 15.2758 388.931 13.4044L386.088 20.882ZM396.421 27.3509C399.347 30.1396 401.667 33.5209 403.373 37.5472L410.739 34.4267C408.632 29.4529 405.703 25.1468 401.941 21.5604L396.421 27.3509ZM403.377 37.5564C405.045 41.4675 405.916 45.9084 405.916 50.94H413.916C413.916 44.9717 412.88 39.4438 410.735 34.4175L403.377 37.5564ZM405.916 50.94C405.916 56.0754 405.042 60.5612 403.377 64.4643L410.735 67.6033C412.883 62.5689 413.916 56.9922 413.916 50.94H405.916ZM403.372 64.4769C401.703 68.4251 399.409 71.7334 396.497 74.4551L401.959 80.3C405.735 76.7717 408.659 72.5175 410.741 67.5907L403.372 64.4769ZM396.512 74.4415C393.571 77.1624 390.14 79.2496 386.181 80.6996L388.932 88.2117C393.847 86.4117 398.198 83.7802 401.945 80.3136L396.512 74.4415ZM386.172 80.7028C382.242 82.152 377.98 82.8932 373.353 82.8932V90.8932C378.851 90.8932 384.057 90.0093 388.94 88.2086L386.172 80.7028ZM373.353 82.8932C368.761 82.8932 364.494 82.1531 360.525 80.6996L357.774 88.2117C362.68 90.0083 367.883 90.8932 373.353 90.8932V82.8932ZM360.534 80.7028C356.606 79.254 353.187 77.1669 350.242 74.4415L344.808 80.3136C348.55 83.7757 352.882 86.4073 357.766 88.2086L360.534 80.7028ZM350.256 74.4551C347.339 71.7286 345.025 68.4128 343.325 64.455L335.975 67.6126C338.087 72.5298 341.024 76.7765 344.794 80.3L350.256 74.4551ZM343.329 64.4643C341.664 60.5612 340.791 56.0754 340.791 50.94H332.791C332.791 56.9922 333.823 62.5689 335.971 67.6033L343.329 64.4643Z" fill="#FEFBFB"/>
<path d="M92.9721 314.481L40.4852 242.022L52.7173 233.161L75.4691 264.571L111.44 238.515L88.6878 207.106L100.92 198.245L153.407 270.705L141.175 279.565L119.699 249.918L83.7288 275.974L105.204 305.621L92.9721 314.481Z" fill="#FCE3BD"/>
<path d="M92.9721 314.481L89.7326 316.828L92.0792 320.067L95.3186 317.721L92.9721 314.481ZM40.4852 242.022L38.1387 238.782L34.8993 241.129L37.2458 244.368L40.4852 242.022ZM52.7173 233.161L55.9567 230.815L53.6102 227.575L50.3707 229.922L52.7173 233.161ZM75.4691 264.571L72.2296 266.917L74.5762 270.157L77.8156 267.81L75.4691 264.571ZM111.44 238.515L113.786 241.755L117.026 239.408L114.679 236.169L111.44 238.515ZM88.6878 207.106L86.3413 203.866L83.1019 206.213L85.4484 209.452L88.6878 207.106ZM100.92 198.245L104.159 195.899L101.813 192.659L98.5733 195.006L100.92 198.245ZM153.407 270.705L155.753 273.944L158.993 271.598L156.646 268.358L153.407 270.705ZM141.175 279.565L137.935 281.912L140.282 285.151L143.521 282.805L141.175 279.565ZM119.699 249.918L122.939 247.571L120.592 244.332L117.353 246.678L119.699 249.918ZM83.7288 275.974L81.3823 272.734L78.1429 275.081L80.4894 278.32L83.7288 275.974ZM105.204 305.621L107.551 308.86L110.79 306.514L108.444 303.274L105.204 305.621ZM96.2115 312.135L43.7246 239.675L37.2458 244.368L89.7326 316.828L96.2115 312.135ZM42.8317 245.261L55.0638 236.401L50.3707 229.922L38.1387 238.782L42.8317 245.261ZM49.4778 235.508L72.2296 266.917L78.7085 262.224L55.9567 230.815L49.4778 235.508ZM77.8156 267.81L113.786 241.755L109.093 235.276L73.1226 261.331L77.8156 267.81ZM114.679 236.169L91.9272 204.759L85.4484 209.452L108.2 240.862L114.679 236.169ZM91.0343 210.345L103.266 201.485L98.5733 195.006L86.3413 203.866L91.0343 210.345ZM97.6804 200.592L150.167 273.051L156.646 268.358L104.159 195.899L97.6804 200.592ZM151.06 267.465L138.828 276.326L143.521 282.805L155.753 273.944L151.06 267.465ZM144.414 277.219L122.939 247.571L116.46 252.264L137.935 281.912L144.414 277.219ZM117.353 246.678L81.3823 272.734L86.0753 279.213L122.046 253.157L117.353 246.678ZM80.4894 278.32L101.965 307.967L108.444 303.274L86.9682 273.627L80.4894 278.32ZM102.858 302.381L90.6255 311.242L95.3186 317.721L107.551 308.86L102.858 302.381Z" fill="#FF5CF8"/>
<path d="M146.782 182.042L161.342 178.025L185.135 264.276L170.574 268.292L146.782 182.042Z" fill="#FCE3BD"/>
<path d="M146.782 182.042L145.718 178.186L141.862 179.249L142.926 183.105L146.782 182.042ZM161.342 178.025L165.198 176.961L164.134 173.105L160.278 174.169L161.342 178.025ZM185.135 264.276L186.198 268.132L190.054 267.068L188.991 263.212L185.135 264.276ZM170.574 268.292L166.719 269.356L167.782 273.212L171.638 272.148L170.574 268.292ZM147.845 185.898L162.406 181.881L160.278 174.169L145.718 178.186L147.845 185.898ZM157.486 179.089L181.279 265.339L188.991 263.212L165.198 176.961L157.486 179.089ZM184.071 260.42L169.511 264.436L171.638 272.148L186.198 268.132L184.071 260.42ZM174.43 267.228L150.638 180.978L142.926 183.105L166.719 269.356L174.43 267.228Z" fill="#6DC6F9"/>
<path d="M202.131 228.621L202.046 215.181L244.541 214.913L244.626 228.353L202.131 228.621Z" fill="#FCE3BD"/>
<path d="M202.131 228.621L198.131 228.646L198.156 232.646L202.156 232.621L202.131 228.621ZM202.046 215.181L202.02 211.182L198.021 211.207L198.046 215.207L202.046 215.181ZM244.541 214.913L248.541 214.888L248.516 210.888L244.516 210.913L244.541 214.913ZM244.626 228.353L244.651 232.353L248.651 232.328L248.626 228.328L244.626 228.353ZM206.13 228.596L206.046 215.156L198.046 215.207L198.131 228.646L206.13 228.596ZM202.071 219.181L244.566 218.913L244.516 210.913L202.02 211.182L202.071 219.181ZM240.541 214.939L240.626 228.378L248.626 228.328L248.541 214.888L240.541 214.939ZM244.6 224.353L202.105 224.621L202.156 232.621L244.651 232.353L244.6 224.353Z" fill="#FF9900"/>
<path d="M298.442 195.576L290.085 218.687L327.4 232.18L322.656 245.301L285.341 231.808L272.805 266.475L258.601 261.339L289.026 177.198L345.12 197.482L340.211 210.679L298.442 195.576Z" fill="#FCE3BD"/>
<path d="M298.442 195.576L299.802 191.814L296.041 190.454L294.68 194.215L298.442 195.576ZM290.085 218.687L286.323 217.327L284.963 221.088L288.725 222.449L290.085 218.687ZM327.4 232.18L331.162 233.54L332.522 229.779L328.761 228.419L327.4 232.18ZM322.656 245.301L321.296 249.062L325.057 250.423L326.418 246.661L322.656 245.301ZM285.341 231.808L286.701 228.046L282.939 226.686L281.579 230.447L285.341 231.808ZM272.805 266.475L271.445 270.236L275.206 271.597L276.567 267.835L272.805 266.475ZM258.601 261.339L254.84 259.978L253.479 263.74L257.241 265.1L258.601 261.339ZM289.026 177.198L290.386 173.437L286.625 172.077L285.264 175.838L289.026 177.198ZM345.12 197.482L348.869 198.876L350.276 195.093L346.48 193.72L345.12 197.482ZM340.211 210.679L338.851 214.441L342.579 215.789L343.96 212.074L340.211 210.679ZM294.68 194.215L286.323 217.327L293.847 220.047L302.204 196.936L294.68 194.215ZM288.725 222.449L326.04 235.942L328.761 228.419L291.445 214.925L288.725 222.449ZM323.639 230.82L318.894 243.941L326.418 246.661L331.162 233.54L323.639 230.82ZM324.016 241.539L286.701 228.046L283.98 235.569L321.296 249.062L324.016 241.539ZM281.579 230.447L269.043 265.114L276.567 267.835L289.102 233.168L281.579 230.447ZM274.165 262.713L259.961 257.577L257.241 265.1L271.445 270.236L274.165 262.713ZM262.363 262.699L292.788 178.559L285.264 175.838L254.84 259.978L262.363 262.699ZM287.666 180.96L343.759 201.243L346.48 193.72L290.386 173.437L287.666 180.96ZM341.37 196.087L336.462 209.285L343.96 212.074L348.869 198.876L341.37 196.087ZM341.571 206.918L299.802 191.814L297.082 199.337L338.851 214.441L341.571 206.918Z" fill="#82F559"/>
<path d="M377.339 219.476L389.34 228.647L335.012 299.737L323.011 290.565L377.339 219.476Z" fill="#FCE3BD"/>
<path d="M377.339 219.476L379.768 216.298L376.59 213.869L374.161 217.047L377.339 219.476ZM389.34 228.647L392.518 231.076L394.947 227.898L391.769 225.469L389.34 228.647ZM335.012 299.737L332.583 302.915L335.762 305.344L338.19 302.165L335.012 299.737ZM323.011 290.565L319.833 288.137L317.404 291.315L320.583 293.744L323.011 290.565ZM374.91 222.654L386.911 231.825L391.769 225.469L379.768 216.298L374.91 222.654ZM386.162 226.218L331.834 297.308L338.19 302.165L392.518 231.076L386.162 226.218ZM337.441 296.558L325.44 287.387L320.583 293.744L332.583 302.915L337.441 296.558ZM326.19 292.994L380.517 221.905L374.161 217.047L319.833 288.137L326.19 292.994Z" fill="#FB2A1C"/>
</g>
<defs>
<filter id="filter0_dd_1_2" x="3.21606" y="43.25" width="413.568" height="376.75" filterUnits="userSpaceOnUse" color-interpolation-filters="sRGB">
<feFlood flood-opacity="0" result="BackgroundImageFix"/>
<feColorMatrix in="SourceAlpha" type="matrix" values="0 0 0 0 0 0 0 0 0 0 0 0 0 0 0 0 0 0 127 0" result="hardAlpha"/>
<feOffset dy="4"/>
<feGaussianBlur stdDeviation="2"/>
<feComposite in2="hardAlpha" operator="out"/>
<feColorMatrix type="matrix" values="0 0 0 0 0 0 0 0 0 0 0 0 0 0 0 0 0 0 0.25 0"/>
<feBlend mode="normal" in2="BackgroundImageFix" result="effect1_dropShadow_1_2"/>
<feColorMatrix in="SourceAlpha" type="matrix" values="0 0 0 0 0 0 0 0 0 0 0 0 0 0 0 0 0 0 127 0" result="hardAlpha"/>
<feOffset/>
<feGaussianBlur stdDeviation="2.5"/>
<feComposite in2="hardAlpha" operator="out"/>
<feColorMatrix type="matrix" values="0 0 0 0 0.941667 0 0 0 0 0.388438 0 0 0 0 0.5876 0 0 0 1 0"/>
<feBlend mode="normal" in2="effect1_dropShadow_1_2" result="effect2_dropShadow_1_2"/>
<feBlend mode="normal" in="SourceGraphic" in2="effect2_dropShadow_1_2" result="shape"/>
</filter>
<clipPath id="clip0_1_2">
<rect width="420" height="428" fill="white"/>
</clipPath>
</defs>
</svg>
