<svg width="500" height="500" viewBox="0 0 500 500" fill="none" xmlns="http://www.w3.org/2000/svg">
<g clip-path="url(#clip0_1_2)">
<rect width="500" height="500" fill="white"/>
<g filter="url(#filter0_dd_1_2)">
<path d="M476.063 73.75L249.5 489.818L22.9366 73.75L476.063 73.75Z" stroke="black" stroke-width="4" shape-rendering="crispEdges"/>
</g>
<rect x="30" y="40" width="438" height="38" fill="white"/>
<path d="M115.852 116H76.3525L60.3525 82.8125V116H25.79V24.5H74.29C81.1233 24.5 87.1025 25.6875 92.2275 28.0625C97.3525 30.4375 101.352 33.75 104.227 38C107.102 42.2917 108.54 47.2708 108.54 52.9375C108.54 58.6042 107.102 63.5625 104.227 67.8125C101.352 72.1042 97.3525 75.4375 92.2275 77.8125L115.852 116ZM60.3525 48.625V62.375H62.915C66.5817 62.375 69.2067 61.8542 70.79 60.8125C72.3733 59.7708 73.165 58 73.165 55.5C73.165 53 72.3733 51.2292 70.79 50.1875C69.2067 49.1458 66.5817 48.625 62.915 48.625H60.3525ZM161.145 81.9375H187.145V58.5625H161.145V49.5H189.395V24.5H125.645V116H191.395V91H161.145V81.9375ZM276 24.5V53H256.625V116H221.125V53H201.75V24.5H276ZM377.542 116H338.042L322.042 82.8125V116H287.48V24.5H335.98C342.813 24.5 348.792 25.6875 353.917 28.0625C359.042 30.4375 363.042 33.75 365.917 38C368.792 42.2917 370.23 47.2708 370.23 52.9375C370.23 58.6042 368.792 63.5625 365.917 67.8125C363.042 72.1042 359.042 75.4375 353.917 77.8125L377.542 116ZM322.042 48.625V62.375H324.605C328.272 62.375 330.897 61.8542 332.48 60.8125C334.063 59.7708 334.855 58 334.855 55.5C334.855 53 334.063 51.2292 332.48 50.1875C330.897 49.1458 328.272 48.625 324.605 48.625H322.042ZM409.585 70.625C409.585 74.5 410.398 77.8333 412.023 80.625C413.648 83.4167 415.814 85.5625 418.523 87.0625C421.273 88.5208 424.293 89.25 427.585 89.25C430.877 89.25 433.877 88.5208 436.585 87.0625C439.335 85.5625 441.523 83.4167 443.148 80.625C444.773 77.8333 445.585 74.5 445.585 70.625C445.585 66.75 444.773 63.3958 443.148 60.5625C441.523 57.7292 439.335 55.5417 436.585 54C433.877 52.4583 430.877 51.6875 427.585 51.6875C424.293 51.6875 421.273 52.4583 418.523 54C415.814 55.5417 413.648 57.7292 412.023 60.5625C410.398 63.3958 409.585 66.75 409.585 70.625ZM378.835 70.75C378.835 63.4167 380.106 56.7708 382.648 50.8125C385.189 44.8125 388.689 39.6875 393.148 35.4375C397.648 31.1875 402.835 27.9375 408.71 25.6875C414.627 23.3958 420.918 22.25 427.585 22.25C434.293 22.25 440.585 23.3958 446.46 25.6875C452.377 27.9375 457.564 31.1875 462.023 35.4375C466.481 39.6875 469.981 44.8125 472.523 50.8125C475.064 56.7708 476.335 63.4167 476.335 70.75C476.335 78.2083 475.064 84.9167 472.523 90.875C470.023 96.7917 466.543 101.833 462.085 106C457.627 110.125 452.439 113.271 446.523 115.438C440.648 117.604 434.335 118.688 427.585 118.688C420.877 118.688 414.564 117.604 408.648 115.438C402.773 113.271 397.606 110.125 393.148 106C388.689 101.833 385.189 96.7917 382.648 90.875C380.106 84.9167 378.835 78.2083 378.835 70.75Z" fill="black"/>
<path d="M120.679 347.917L68.1917 275.458L80.4238 266.597L103.176 298.007L139.146 271.951L116.394 240.542L128.626 231.681L181.113 304.14L168.881 313.001L147.406 283.354L111.435 309.409L132.911 339.057L120.679 347.917Z" fill="black"/>
<path d="M120.679 347.917L117.439 350.264L119.786 353.503L123.025 351.156L120.679 347.917ZM68.1917 275.458L65.8452 272.218L62.6058 274.565L64.9523 277.804L68.1917 275.458ZM80.4238 266.597L83.6632 264.251L81.3167 261.011L78.0773 263.358L80.4238 266.597ZM103.176 298.007L99.9362 300.353L102.283 303.593L105.522 301.246L103.176 298.007ZM139.146 271.951L141.493 275.19L144.732 272.844L142.386 269.604L139.146 271.951ZM116.394 240.542L114.048 237.302L110.808 239.649L113.155 242.888L116.394 240.542ZM128.626 231.681L131.866 229.335L129.519 226.095L126.28 228.442L128.626 231.681ZM181.113 304.14L183.46 307.38L186.699 305.033L184.353 301.794L181.113 304.14ZM168.881 313.001L165.642 315.347L167.988 318.587L171.228 316.24L168.881 313.001ZM147.406 283.354L150.645 281.007L148.299 277.768L145.059 280.114L147.406 283.354ZM111.435 309.409L109.089 306.17L105.849 308.517L108.196 311.756L111.435 309.409ZM132.911 339.057L135.257 342.296L138.497 339.95L136.15 336.71L132.911 339.057ZM123.918 345.571L71.4312 273.111L64.9523 277.804L117.439 350.264L123.918 345.571ZM70.5383 278.697L82.7703 269.837L78.0773 263.358L65.8452 272.218L70.5383 278.697ZM77.1844 268.944L99.9362 300.353L106.415 295.66L83.6632 264.251L77.1844 268.944ZM105.522 301.246L141.493 275.19L136.8 268.712L100.829 294.767L105.522 301.246ZM142.386 269.604L119.634 238.195L113.155 242.888L135.907 274.297L142.386 269.604ZM118.741 243.781L130.973 234.92L126.28 228.442L114.048 237.302L118.741 243.781ZM125.387 234.028L177.874 306.487L184.353 301.794L131.866 229.335L125.387 234.028ZM178.767 300.901L166.535 309.761L171.228 316.24L183.46 307.38L178.767 300.901ZM172.121 310.654L150.645 281.007L144.166 285.7L165.642 315.347L172.121 310.654ZM145.059 280.114L109.089 306.17L113.782 312.649L149.752 286.593L145.059 280.114ZM108.196 311.756L129.671 341.403L136.15 336.71L114.675 307.063L108.196 311.756ZM130.564 335.817L118.332 344.678L123.025 351.156L135.257 342.296L130.564 335.817Z" fill="black"/>
<path d="M178.592 213.503L193.152 209.486L216.945 295.737L202.385 299.753L178.592 213.503Z" fill="black"/>
<path d="M178.592 213.503L177.528 209.647L173.672 210.71L174.736 214.566L178.592 213.503ZM193.152 209.486L197.008 208.423L195.944 204.567L192.088 205.63L193.152 209.486ZM216.945 295.737L218.008 299.593L221.864 298.529L220.801 294.673L216.945 295.737ZM202.385 299.753L198.529 300.817L199.592 304.673L203.448 303.609L202.385 299.753ZM179.656 217.359L194.216 213.342L192.088 205.63L177.528 209.647L179.656 217.359ZM189.296 210.55L213.089 296.8L220.801 294.673L197.008 208.423L189.296 210.55ZM215.881 291.881L201.321 295.897L203.448 303.609L218.008 299.593L215.881 291.881ZM206.24 298.689L182.448 212.439L174.736 214.566L198.529 300.817L206.24 298.689Z" fill="black"/>
<path d="M237.361 259.61L237.276 246.17L279.772 245.902L279.856 259.341L237.361 259.61Z" fill="black"/>
<path d="M237.361 259.61L233.361 259.635L233.387 263.635L237.386 263.61L237.361 259.61ZM237.276 246.17L237.251 242.17L233.251 242.195L233.277 246.195L237.276 246.17ZM279.772 245.902L283.772 245.876L283.746 241.877L279.746 241.902L279.772 245.902ZM279.856 259.341L279.882 263.341L283.882 263.316L283.856 259.316L279.856 259.341ZM241.361 259.584L241.276 246.145L233.277 246.195L233.361 259.635L241.361 259.584ZM237.302 250.17L279.797 249.902L279.746 241.902L237.251 242.17L237.302 250.17ZM275.772 245.927L275.856 259.367L283.856 259.316L283.772 245.876L275.772 245.927ZM279.831 255.342L237.336 255.61L237.386 263.61L279.882 263.341L279.831 255.342Z" fill="black"/>
<path d="M338.151 227.335L329.794 250.446L367.109 263.939L362.365 277.06L325.05 263.567L312.514 298.234L298.31 293.098L328.735 208.958L384.828 229.241L379.92 242.438L338.151 227.335Z" fill="black"/>
<path d="M338.151 227.335L339.511 223.573L335.75 222.213L334.389 225.974L338.151 227.335ZM329.794 250.446L326.032 249.086L324.672 252.848L328.434 254.208L329.794 250.446ZM367.109 263.939L370.871 265.3L372.231 261.538L368.47 260.178L367.109 263.939ZM362.365 277.06L361.005 280.821L364.766 282.182L366.127 278.42L362.365 277.06ZM325.05 263.567L326.41 259.805L322.648 258.445L321.288 262.206L325.05 263.567ZM312.514 298.234L311.154 301.995L314.915 303.356L316.276 299.594L312.514 298.234ZM298.31 293.098L294.548 291.738L293.188 295.499L296.95 296.859L298.31 293.098ZM328.735 208.958L330.095 205.196L326.334 203.836L324.973 207.597L328.735 208.958ZM384.828 229.241L388.578 230.635L389.985 226.852L386.189 225.479L384.828 229.241ZM379.92 242.438L378.56 246.2L382.288 247.548L383.669 243.833L379.92 242.438ZM334.389 225.974L326.032 249.086L333.556 251.806L341.913 228.695L334.389 225.974ZM328.434 254.208L365.749 267.701L368.47 260.178L331.154 246.684L328.434 254.208ZM363.348 262.579L358.603 275.7L366.127 278.42L370.871 265.3L363.348 262.579ZM363.725 273.298L326.41 259.805L323.689 267.328L361.005 280.821L363.725 273.298ZM321.288 262.206L308.752 296.874L316.276 299.594L328.811 264.927L321.288 262.206ZM313.874 294.472L299.67 289.336L296.95 296.859L311.154 301.995L313.874 294.472ZM302.072 294.458L332.497 210.318L324.973 207.597L294.548 291.738L302.072 294.458ZM327.375 212.719L383.468 233.003L386.189 225.479L330.095 205.196L327.375 212.719ZM381.079 227.847L376.171 241.044L383.669 243.833L388.578 230.635L381.079 227.847ZM381.28 238.677L339.511 223.573L336.791 231.096L378.56 246.2L381.28 238.677Z" fill="black"/>
<path d="M420.482 253.104L432.483 262.275L378.155 333.365L366.155 324.194L420.482 253.104Z" fill="black"/>
<path d="M420.482 253.104L422.911 249.926L419.733 247.497L417.304 250.675L420.482 253.104ZM432.483 262.275L435.661 264.704L438.09 261.526L434.912 259.097L432.483 262.275ZM378.155 333.365L375.727 336.543L378.905 338.972L381.334 335.794L378.155 333.365ZM366.155 324.194L362.976 321.765L360.548 324.943L363.726 327.372L366.155 324.194ZM418.054 256.282L430.054 265.453L434.912 259.097L422.911 249.926L418.054 256.282ZM429.305 259.846L374.977 330.936L381.334 335.794L435.661 264.704L429.305 259.846ZM380.584 330.187L368.583 321.015L363.726 327.372L375.727 336.543L380.584 330.187ZM369.333 326.622L423.661 255.533L417.304 250.675L362.976 321.765L369.333 326.622Z" fill="black"/>
</g>
<defs>
<filter id="filter0_dd_1_2" x="15.5703" y="71.75" width="467.859" height="430.25" filterUnits="userSpaceOnUse" color-interpolation-filters="sRGB">
<feFlood flood-opacity="0" result="BackgroundImageFix"/>
<feColorMatrix in="SourceAlpha" type="matrix" values="0 0 0 0 0 0 0 0 0 0 0 0 0 0 0 0 0 0 127 0" result="hardAlpha"/>
<feOffset dy="4"/>
<feGaussianBlur stdDeviation="2"/>
<feComposite in2="hardAlpha" operator="out"/>
<feColorMatrix type="matrix" values="0 0 0 0 0 0 0 0 0 0 0 0 0 0 0 0 0 0 0.25 0"/>
<feBlend mode="normal" in2="BackgroundImageFix" result="effect1_dropShadow_1_2"/>
<feColorMatrix in="SourceAlpha" type="matrix" values="0 0 0 0 0 0 0 0 0 0 0 0 0 0 0 0 0 0 127 0" result="hardAlpha"/>
<feOffset dy="4"/>
<feGaussianBlur stdDeviation="2"/>
<feComposite in2="hardAlpha" operator="out"/>
<feColorMatrix type="matrix" values="0 0 0 0 0 0 0 0 0 0 0 0 0 0 0 0 0 0 0.25 0"/>
<feBlend mode="normal" in2="effect1_dropShadow_1_2" result="effect2_dropShadow_1_2"/>
<feBlend mode="normal" in="SourceGraphic" in2="effect2_dropShadow_1_2" result="shape"/>
</filter>
<clipPath id="clip0_1_2">
<rect width="500" height="500" fill="white"/>
</clipPath>
</defs>
</svg>
