<svg width="500" height="500" viewBox="0 0 500 500" fill="none" xmlns="http://www.w3.org/2000/svg">
<g clip-path="url(#clip0_1_2)">
<g filter="url(#filter0_dd_1_2)">
<path d="M476.063 73.75L249.5 489.818L22.9366 73.75L476.063 73.75Z" stroke="#8847F1" stroke-opacity="0.79" stroke-width="4" shape-rendering="crispEdges"/>
</g>
<path d="M115.852 116H76.3525L60.3525 82.8125V116H25.79V24.5H74.29C81.1233 24.5 87.1025 25.6875 92.2275 28.0625C97.3525 30.4375 101.352 33.75 104.227 38C107.102 42.2917 108.54 47.2708 108.54 52.9375C108.54 58.6042 107.102 63.5625 104.227 67.8125C101.352 72.1042 97.3525 75.4375 92.2275 77.8125L115.852 116ZM60.3525 48.625V62.375H62.915C66.5817 62.375 69.2067 61.8542 70.79 60.8125C72.3733 59.7708 73.165 58 73.165 55.5C73.165 53 72.3733 51.2292 70.79 50.1875C69.2067 49.1458 66.5817 48.625 62.915 48.625H60.3525ZM161.145 81.9375H187.145V58.5625H161.145V49.5H189.395V24.5H125.645V116H191.395V91H161.145V81.9375ZM276 24.5V53H256.625V116H221.125V53H201.75V24.5H276ZM377.542 116H338.042L322.042 82.8125V116H287.48V24.5H335.98C342.813 24.5 348.792 25.6875 353.917 28.0625C359.042 30.4375 363.042 33.75 365.917 38C368.792 42.2917 370.23 47.2708 370.23 52.9375C370.23 58.6042 368.792 63.5625 365.917 67.8125C363.042 72.1042 359.042 75.4375 353.917 77.8125L377.542 116ZM322.042 48.625V62.375H324.605C328.272 62.375 330.897 61.8542 332.48 60.8125C334.063 59.7708 334.855 58 334.855 55.5C334.855 53 334.063 51.2292 332.48 50.1875C330.897 49.1458 328.272 48.625 324.605 48.625H322.042ZM409.585 70.625C409.585 74.5 410.398 77.8333 412.023 80.625C413.648 83.4167 415.814 85.5625 418.523 87.0625C421.273 88.5208 424.293 89.25 427.585 89.25C430.877 89.25 433.877 88.5208 436.585 87.0625C439.335 85.5625 441.523 83.4167 443.148 80.625C444.773 77.8333 445.585 74.5 445.585 70.625C445.585 66.75 444.773 63.3958 443.148 60.5625C441.523 57.7292 439.335 55.5417 436.585 54C433.877 52.4583 430.877 51.6875 427.585 51.6875C424.293 51.6875 421.273 52.4583 418.523 54C415.814 55.5417 413.648 57.7292 412.023 60.5625C410.398 63.3958 409.585 66.75 409.585 70.625ZM378.835 70.75C378.835 63.4167 380.106 56.7708 382.648 50.8125C385.189 44.8125 388.689 39.6875 393.148 35.4375C397.648 31.1875 402.835 27.9375 408.71 25.6875C414.627 23.3958 420.918 22.25 427.585 22.25C434.293 22.25 440.585 23.3958 446.46 25.6875C452.377 27.9375 457.564 31.1875 462.023 35.4375C466.481 39.6875 469.981 44.8125 472.523 50.8125C475.064 56.7708 476.335 63.4167 476.335 70.75C476.335 78.2083 475.064 84.9167 472.523 90.875C470.023 96.7917 466.543 101.833 462.085 106C457.627 110.125 452.439 113.271 446.523 115.438C440.648 117.604 434.335 118.688 427.585 118.688C420.877 118.688 414.564 117.604 408.648 115.438C402.773 113.271 397.606 110.125 393.148 106C388.689 101.833 385.189 96.7917 382.648 90.875C380.106 84.9167 378.835 78.2083 378.835 70.75Z" fill="#8ADF1F"/>
<path d="M115.852 116V120H123.031L119.254 113.896L115.852 116ZM76.3525 116L72.7494 117.737L73.8403 120H76.3525V116ZM60.3525 82.8125L63.9556 81.0754L56.3525 82.8125H60.3525ZM60.3525 116V120H64.3525V116H60.3525ZM25.79 116H21.79V120H25.79V116ZM25.79 24.5V20.5H21.79V24.5H25.79ZM104.227 38L107.551 35.7738L107.546 35.7663L107.541 35.7588L104.227 38ZM104.227 67.8125L100.914 65.5713L100.909 65.5788L100.904 65.5863L104.227 67.8125ZM92.2275 77.8125L90.5456 74.1833L86.4522 76.0802L88.8258 79.917L92.2275 77.8125ZM60.3525 48.625V44.625H56.3525V48.625H60.3525ZM60.3525 62.375H56.3525V66.375H60.3525V62.375ZM115.852 112H76.3525V120H115.852V112ZM79.9556 114.263L63.9556 81.0754L56.7494 84.5496L72.7494 117.737L79.9556 114.263ZM56.3525 82.8125V116H64.3525V82.8125H56.3525ZM60.3525 112H25.79V120H60.3525V112ZM29.79 116V24.5H21.79V116H29.79ZM25.79 28.5H74.29V20.5H25.79V28.5ZM74.29 28.5C80.6621 28.5 86.0464 29.6067 90.5456 31.6917L93.9093 24.4333C88.1586 21.7683 81.5845 20.5 74.29 20.5V28.5ZM90.5456 31.6917C95.0794 33.7928 98.4872 36.6533 100.914 40.2412L107.541 35.7588C104.218 30.8467 99.6256 27.0822 93.9093 24.4333L90.5456 31.6917ZM100.904 40.2262C103.295 43.7957 104.54 47.9834 104.54 52.9375H112.54C112.54 46.5583 110.91 40.7877 107.551 35.7738L100.904 40.2262ZM104.54 52.9375C104.54 57.8921 103.295 62.0515 100.914 65.5713L107.541 70.0537C110.91 65.0735 112.54 59.3162 112.54 52.9375H104.54ZM100.904 65.5863C98.4752 69.2123 95.0696 72.0868 90.5456 74.1833L93.9093 81.4417C99.6354 78.7882 104.23 74.996 107.551 70.0387L100.904 65.5863ZM88.8258 79.917L112.451 118.104L119.254 113.896L95.6292 75.708L88.8258 79.917ZM56.3525 48.625V62.375H64.3525V48.625H56.3525ZM60.3525 66.375H62.915V58.375H60.3525V66.375ZM62.915 66.375C66.7505 66.375 70.3809 65.8697 72.9885 64.1542L68.5915 57.4708C68.0324 57.8387 66.4128 58.375 62.915 58.375V66.375ZM72.9885 64.1542C76.045 62.1433 77.165 58.8671 77.165 55.5H69.165C69.165 57.1329 68.7016 57.3984 68.5915 57.4708L72.9885 64.1542ZM77.165 55.5C77.165 52.1329 76.045 48.8567 72.9885 46.8458L68.5915 53.5292C68.7016 53.6016 69.165 53.8671 69.165 55.5H77.165ZM72.9885 46.8458C70.3809 45.1303 66.7505 44.625 62.915 44.625V52.625C66.4128 52.625 68.0324 53.1613 68.5915 53.5292L72.9885 46.8458ZM62.915 44.625H60.3525V52.625H62.915V44.625ZM161.145 81.9375V77.9375H157.145V81.9375H161.145ZM187.145 81.9375V85.9375H191.145V81.9375H187.145ZM187.145 58.5625H191.145V54.5625H187.145V58.5625ZM161.145 58.5625H157.145V62.5625H161.145V58.5625ZM161.145 49.5V45.5H157.145V49.5H161.145ZM189.395 49.5V53.5H193.395V49.5H189.395ZM189.395 24.5H193.395V20.5H189.395V24.5ZM125.645 24.5V20.5H121.645V24.5H125.645ZM125.645 116H121.645V120H125.645V116ZM191.395 116V120H195.395V116H191.395ZM191.395 91H195.395V87H191.395V91ZM161.145 91H157.145V95H161.145V91ZM161.145 85.9375H187.145V77.9375H161.145V85.9375ZM191.145 81.9375V58.5625H183.145V81.9375H191.145ZM187.145 54.5625H161.145V62.5625H187.145V54.5625ZM165.145 58.5625V49.5H157.145V58.5625H165.145ZM161.145 53.5H189.395V45.5H161.145V53.5ZM193.395 49.5V24.5H185.395V49.5H193.395ZM189.395 20.5H125.645V28.5H189.395V20.5ZM121.645 24.5V116H129.645V24.5H121.645ZM125.645 120H191.395V112H125.645V120ZM195.395 116V91H187.395V116H195.395ZM191.395 87H161.145V95H191.395V87ZM165.145 91V81.9375H157.145V91H165.145ZM276 24.5H280V20.5H276V24.5ZM276 53V57H280V53H276ZM256.625 53V49H252.625V53H256.625ZM256.625 116V120H260.625V116H256.625ZM221.125 116H217.125V120H221.125V116ZM221.125 53H225.125V49H221.125V53ZM201.75 53H197.75V57H201.75V53ZM201.75 24.5V20.5H197.75V24.5H201.75ZM272 24.5V53H280V24.5H272ZM276 49H256.625V57H276V49ZM252.625 53V116H260.625V53H252.625ZM256.625 112H221.125V120H256.625V112ZM225.125 116V53H217.125V116H225.125ZM221.125 49H201.75V57H221.125V49ZM205.75 53V24.5H197.75V53H205.75ZM201.75 28.5H276V20.5H201.75V28.5ZM377.542 116V120H384.721L380.944 113.896L377.542 116ZM338.042 116L334.439 117.737L335.53 120H338.042V116ZM322.042 82.8125L325.646 81.0754L318.042 82.8125H322.042ZM322.042 116V120H326.042V116H322.042ZM287.48 116H283.48V120H287.48V116ZM287.48 24.5V20.5H283.48V24.5H287.48ZM365.917 38L369.241 35.7738L369.236 35.7663L369.231 35.7588L365.917 38ZM365.917 67.8125L362.604 65.5713L362.599 65.5788L362.594 65.5863L365.917 67.8125ZM353.917 77.8125L352.236 74.1833L348.142 76.0802L350.516 79.917L353.917 77.8125ZM322.042 48.625V44.625H318.042V48.625H322.042ZM322.042 62.375H318.042V66.375H322.042V62.375ZM377.542 112H338.042V120H377.542V112ZM341.646 114.263L325.646 81.0754L318.439 84.5496L334.439 117.737L341.646 114.263ZM318.042 82.8125V116H326.042V82.8125H318.042ZM322.042 112H287.48V120H322.042V112ZM291.48 116V24.5H283.48V116H291.48ZM287.48 28.5H335.98V20.5H287.48V28.5ZM335.98 28.5C342.352 28.5 347.736 29.6067 352.236 31.6917L355.599 24.4333C349.849 21.7683 343.275 20.5 335.98 20.5V28.5ZM352.236 31.6917C356.769 33.7928 360.177 36.6533 362.604 40.2412L369.231 35.7588C365.908 30.8467 361.316 27.0822 355.599 24.4333L352.236 31.6917ZM362.594 40.2262C364.985 43.7957 366.23 47.9834 366.23 52.9375H374.23C374.23 46.5583 372.6 40.7877 369.241 35.7738L362.594 40.2262ZM366.23 52.9375C366.23 57.8921 364.985 62.0515 362.604 65.5713L369.231 70.0537C372.6 65.0735 374.23 59.3162 374.23 52.9375H366.23ZM362.594 65.5863C360.165 69.2123 356.76 72.0868 352.236 74.1833L355.599 81.4417C361.325 78.7882 365.92 74.996 369.241 70.0387L362.594 65.5863ZM350.516 79.917L374.141 118.104L380.944 113.896L357.319 75.708L350.516 79.917ZM318.042 48.625V62.375H326.042V48.625H318.042ZM322.042 66.375H324.605V58.375H322.042V66.375ZM324.605 66.375C328.44 66.375 332.071 65.8697 334.678 64.1542L330.282 57.4708C329.722 57.8387 328.103 58.375 324.605 58.375V66.375ZM334.678 64.1542C337.735 62.1433 338.855 58.8671 338.855 55.5H330.855C330.855 57.1329 330.392 57.3984 330.282 57.4708L334.678 64.1542ZM338.855 55.5C338.855 52.1329 337.735 48.8567 334.678 46.8458L330.282 53.5292C330.392 53.6016 330.855 53.8671 330.855 55.5H338.855ZM334.678 46.8458C332.071 45.1303 328.44 44.625 324.605 44.625V52.625C328.103 52.625 329.722 53.1613 330.282 53.5292L334.678 46.8458ZM324.605 44.625H322.042V52.625H324.605V44.625ZM418.523 87.0625L416.585 90.5617L416.616 90.5793L416.648 90.5964L418.523 87.0625ZM436.585 87.0625L438.481 90.5844L438.491 90.5793L438.5 90.5741L436.585 87.0625ZM436.585 54L434.606 57.4763L434.618 57.4827L434.629 57.4891L436.585 54ZM418.523 54L416.566 50.5109L416.555 50.5173L416.544 50.5237L418.523 54ZM382.648 50.8125L386.327 52.382L386.331 52.3727L382.648 50.8125ZM393.148 35.4375L390.401 32.5294L390.394 32.5358L390.388 32.5422L393.148 35.4375ZM408.71 25.6875L410.141 29.4229L410.148 29.4202L410.155 29.4175L408.71 25.6875ZM446.46 25.6875L445.006 29.414L445.022 29.4202L445.038 29.4263L446.46 25.6875ZM472.523 50.8125L468.839 52.3727L468.843 52.382L472.523 50.8125ZM472.523 90.875L468.843 89.3055L468.838 89.3181L472.523 90.875ZM462.085 106L464.802 108.936L464.809 108.929L464.816 108.922L462.085 106ZM446.523 115.438L445.147 111.681L445.138 111.685L446.523 115.438ZM408.648 115.438L407.263 119.19L407.272 119.194L408.648 115.438ZM393.148 106L390.416 108.922L390.424 108.929L390.431 108.936L393.148 106ZM382.648 90.875L378.968 92.4445L378.972 92.4538L382.648 90.875ZM405.585 70.625C405.585 75.0656 406.52 79.123 408.566 82.6373L415.48 78.6127C414.275 76.5436 413.585 73.9344 413.585 70.625H405.585ZM408.566 82.6373C410.537 86.0242 413.217 88.6966 416.585 90.5617L420.461 83.5633C418.411 82.4284 416.758 80.8091 415.48 78.6127L408.566 82.6373ZM416.648 90.5964C420.009 92.3784 423.679 93.25 427.585 93.25V85.25C424.908 85.25 422.536 84.6632 420.397 83.5286L416.648 90.5964ZM427.585 93.25C431.491 93.25 435.15 92.3784 438.481 90.5844L434.689 83.5406C432.604 84.6632 430.262 85.25 427.585 85.25V93.25ZM438.5 90.5741C441.912 88.7131 444.624 86.0394 446.605 82.6373L439.691 78.6127C438.421 80.7939 436.758 82.4119 434.67 83.5509L438.5 90.5741ZM446.605 82.6373C448.65 79.123 449.585 75.0656 449.585 70.625H441.585C441.585 73.9344 440.895 76.5436 439.691 78.6127L446.605 82.6373ZM449.585 70.625C449.585 66.1824 448.649 62.1156 446.617 58.5724L439.678 62.5526C440.896 64.6761 441.585 67.3176 441.585 70.625H449.585ZM446.617 58.5724C444.646 55.1354 441.945 52.4193 438.541 50.5109L434.629 57.4891C436.725 58.664 438.399 60.3229 439.678 62.5526L446.617 58.5724ZM438.564 50.5237C435.218 48.6193 431.53 47.6875 427.585 47.6875V55.6875C430.223 55.6875 432.535 56.2973 434.606 57.4763L438.564 50.5237ZM427.585 47.6875C423.64 47.6875 419.941 48.6192 416.566 50.5109L420.479 57.4891C422.604 56.2974 424.947 55.6875 427.585 55.6875V47.6875ZM416.544 50.5237C413.184 52.4361 410.515 55.1505 408.553 58.5724L415.492 62.5526C416.78 60.3078 418.444 58.6472 420.501 57.4763L416.544 50.5237ZM408.553 58.5724C406.521 62.1156 405.585 66.1824 405.585 70.625H413.585C413.585 67.3176 414.274 64.6761 415.492 62.5526L408.553 58.5724ZM382.835 70.75C382.835 63.8851 384.023 57.7827 386.327 52.382L378.968 49.243C376.189 55.759 374.835 62.9483 374.835 70.75H382.835ZM386.331 52.3727C388.672 46.8465 391.868 42.1839 395.908 38.3328L390.388 32.5422C385.511 37.1911 381.707 42.7785 378.964 49.2523L386.331 52.3727ZM395.894 38.3456C400.007 34.4607 404.746 31.489 410.141 29.4229L407.279 21.9521C400.924 24.386 395.288 27.9143 390.401 32.5294L395.894 38.3456ZM410.155 29.4175C415.588 27.3132 421.387 26.25 427.585 26.25V18.25C420.45 18.25 413.666 19.4784 407.265 21.9575L410.155 29.4175ZM427.585 26.25C433.828 26.25 439.624 27.3144 445.006 29.414L447.914 21.961C441.546 19.4773 434.759 18.25 427.585 18.25V26.25ZM445.038 29.4263C450.471 31.4924 455.2 34.4605 459.263 38.3328L464.783 32.5422C459.928 27.9145 454.282 24.3826 447.882 21.9487L445.038 29.4263ZM459.263 38.3328C463.302 42.1839 466.498 46.8465 468.839 52.3727L476.206 49.2523C473.463 42.7785 469.659 37.1911 464.783 32.5422L459.263 38.3328ZM468.843 52.382C471.147 57.7827 472.335 63.8851 472.335 70.75H480.335C480.335 62.9483 478.981 55.759 476.202 49.243L468.843 52.382ZM472.335 70.75C472.335 77.7499 471.144 83.9128 468.843 89.3055L476.202 92.4445C478.985 85.9205 480.335 78.6667 480.335 70.75H472.335ZM468.838 89.3181C466.545 94.7455 463.381 99.3142 459.354 103.078L464.816 108.922C469.706 104.352 473.5 98.8378 476.207 92.4319L468.838 89.3181ZM459.368 103.064C455.313 106.816 450.586 109.69 445.147 111.681L447.898 119.194C454.293 116.852 459.94 113.434 464.802 108.936L459.368 103.064ZM445.138 111.685C439.74 113.675 433.9 114.688 427.585 114.688V122.688C434.77 122.688 441.555 121.533 447.907 119.19L445.138 111.685ZM427.585 114.688C421.315 114.688 415.471 113.677 410.023 111.681L407.272 119.194C413.657 121.532 420.438 122.688 427.585 122.688V114.688ZM410.032 111.685C404.635 109.694 399.924 106.821 395.864 103.064L390.431 108.936C395.287 113.429 400.911 116.847 407.263 119.19L410.032 111.685ZM395.879 103.078C391.847 99.3094 388.658 94.7331 386.323 89.2962L378.972 92.4538C381.72 98.8502 385.532 104.357 390.416 108.922L395.879 103.078ZM386.327 89.3055C384.026 83.9128 382.835 77.7499 382.835 70.75H374.835C374.835 78.6667 376.185 85.9205 378.968 92.4445L386.327 89.3055Z" fill="#F06396"/>
<path d="M120.679 347.917L68.1917 275.458L80.4238 266.597L103.176 298.007L139.146 271.951L116.394 240.542L128.626 231.681L181.113 304.14L168.881 313.001L147.406 283.354L111.435 309.409L132.911 339.057L120.679 347.917Z" fill="#4CF0B5"/>
<path d="M120.679 347.917L117.439 350.264L119.786 353.503L123.025 351.156L120.679 347.917ZM68.1917 275.458L65.8452 272.218L62.6058 274.565L64.9523 277.804L68.1917 275.458ZM80.4238 266.597L83.6632 264.251L81.3167 261.011L78.0773 263.358L80.4238 266.597ZM103.176 298.007L99.9362 300.353L102.283 303.593L105.522 301.246L103.176 298.007ZM139.146 271.951L141.493 275.19L144.732 272.844L142.386 269.604L139.146 271.951ZM116.394 240.542L114.048 237.302L110.808 239.649L113.155 242.888L116.394 240.542ZM128.626 231.681L131.866 229.335L129.519 226.095L126.28 228.442L128.626 231.681ZM181.113 304.14L183.46 307.38L186.699 305.033L184.353 301.794L181.113 304.14ZM168.881 313.001L165.642 315.347L167.988 318.587L171.228 316.24L168.881 313.001ZM147.406 283.354L150.645 281.007L148.299 277.768L145.059 280.114L147.406 283.354ZM111.435 309.409L109.089 306.17L105.849 308.517L108.196 311.756L111.435 309.409ZM132.911 339.057L135.257 342.296L138.497 339.95L136.15 336.71L132.911 339.057ZM123.918 345.571L71.4312 273.111L64.9523 277.804L117.439 350.264L123.918 345.571ZM70.5383 278.697L82.7703 269.837L78.0773 263.358L65.8452 272.218L70.5383 278.697ZM77.1844 268.944L99.9362 300.353L106.415 295.66L83.6632 264.251L77.1844 268.944ZM105.522 301.246L141.493 275.19L136.8 268.712L100.829 294.767L105.522 301.246ZM142.386 269.604L119.634 238.195L113.155 242.888L135.907 274.297L142.386 269.604ZM118.741 243.781L130.973 234.92L126.28 228.442L114.048 237.302L118.741 243.781ZM125.387 234.028L177.874 306.487L184.353 301.794L131.866 229.335L125.387 234.028ZM178.767 300.901L166.535 309.761L171.228 316.24L183.46 307.38L178.767 300.901ZM172.121 310.654L150.645 281.007L144.166 285.7L165.642 315.347L172.121 310.654ZM145.059 280.114L109.089 306.17L113.782 312.649L149.752 286.593L145.059 280.114ZM108.196 311.756L129.671 341.403L136.15 336.71L114.675 307.063L108.196 311.756ZM130.564 335.817L118.332 344.678L123.025 351.156L135.257 342.296L130.564 335.817Z" fill="#1FA3EE"/>
<path d="M178.592 213.503L193.152 209.486L216.945 295.737L202.385 299.753L178.592 213.503Z" fill="#4CF0B5"/>
<path d="M178.592 213.503L177.528 209.647L173.672 210.71L174.736 214.566L178.592 213.503ZM193.152 209.486L197.008 208.423L195.944 204.567L192.088 205.63L193.152 209.486ZM216.945 295.737L218.008 299.593L221.864 298.529L220.801 294.673L216.945 295.737ZM202.385 299.753L198.529 300.817L199.592 304.673L203.448 303.609L202.385 299.753ZM179.656 217.359L194.216 213.342L192.088 205.63L177.528 209.647L179.656 217.359ZM189.296 210.55L213.089 296.8L220.801 294.673L197.008 208.423L189.296 210.55ZM215.881 291.881L201.321 295.897L203.448 303.609L218.008 299.593L215.881 291.881ZM206.24 298.689L182.448 212.439L174.736 214.566L198.529 300.817L206.24 298.689Z" fill="#1FA3EE"/>
<path d="M237.361 259.61L237.276 246.17L279.772 245.902L279.856 259.341L237.361 259.61Z" fill="#4CF0B5"/>
<path d="M237.361 259.61L233.361 259.635L233.387 263.635L237.386 263.61L237.361 259.61ZM237.276 246.17L237.251 242.17L233.251 242.195L233.277 246.195L237.276 246.17ZM279.772 245.902L283.772 245.876L283.746 241.877L279.746 241.902L279.772 245.902ZM279.856 259.341L279.882 263.341L283.882 263.316L283.856 259.316L279.856 259.341ZM241.361 259.584L241.276 246.145L233.277 246.195L233.361 259.635L241.361 259.584ZM237.302 250.17L279.797 249.902L279.746 241.902L237.251 242.17L237.302 250.17ZM275.772 245.927L275.856 259.367L283.856 259.316L283.772 245.876L275.772 245.927ZM279.831 255.342L237.336 255.61L237.386 263.61L279.882 263.341L279.831 255.342Z" fill="#1FA3EE"/>
<path d="M338.151 227.335L329.794 250.446L367.109 263.939L362.365 277.06L325.05 263.567L312.514 298.234L298.31 293.098L328.735 208.958L384.828 229.241L379.92 242.438L338.151 227.335Z" fill="#4CF0B5"/>
<path d="M338.151 227.335L339.511 223.573L335.75 222.213L334.389 225.974L338.151 227.335ZM329.794 250.446L326.032 249.086L324.672 252.848L328.434 254.208L329.794 250.446ZM367.109 263.939L370.871 265.3L372.231 261.538L368.47 260.178L367.109 263.939ZM362.365 277.06L361.005 280.821L364.766 282.182L366.127 278.42L362.365 277.06ZM325.05 263.567L326.41 259.805L322.648 258.445L321.288 262.206L325.05 263.567ZM312.514 298.234L311.154 301.995L314.915 303.356L316.276 299.594L312.514 298.234ZM298.31 293.098L294.548 291.738L293.188 295.499L296.95 296.859L298.31 293.098ZM328.735 208.958L330.095 205.196L326.334 203.836L324.973 207.597L328.735 208.958ZM384.828 229.241L388.578 230.635L389.985 226.852L386.189 225.479L384.828 229.241ZM379.92 242.438L378.56 246.2L382.288 247.548L383.669 243.833L379.92 242.438ZM334.389 225.974L326.032 249.086L333.556 251.806L341.913 228.695L334.389 225.974ZM328.434 254.208L365.749 267.701L368.47 260.178L331.154 246.684L328.434 254.208ZM363.348 262.579L358.603 275.7L366.127 278.42L370.871 265.3L363.348 262.579ZM363.725 273.298L326.41 259.805L323.689 267.328L361.005 280.821L363.725 273.298ZM321.288 262.206L308.752 296.874L316.276 299.594L328.811 264.927L321.288 262.206ZM313.874 294.472L299.67 289.336L296.95 296.859L311.154 301.995L313.874 294.472ZM302.072 294.458L332.497 210.318L324.973 207.597L294.548 291.738L302.072 294.458ZM327.375 212.719L383.468 233.003L386.189 225.479L330.095 205.196L327.375 212.719ZM381.079 227.847L376.171 241.044L383.669 243.833L388.578 230.635L381.079 227.847ZM381.28 238.677L339.511 223.573L336.791 231.096L378.56 246.2L381.28 238.677Z" fill="#1FA3EE"/>
<path d="M420.482 253.104L432.483 262.275L378.155 333.365L366.155 324.194L420.482 253.104Z" fill="#4CF0B5"/>
<path d="M420.482 253.104L422.911 249.926L419.733 247.497L417.304 250.675L420.482 253.104ZM432.483 262.275L435.661 264.704L438.09 261.526L434.912 259.097L432.483 262.275ZM378.155 333.365L375.727 336.543L378.905 338.972L381.334 335.794L378.155 333.365ZM366.155 324.194L362.976 321.765L360.548 324.943L363.726 327.372L366.155 324.194ZM418.054 256.282L430.054 265.453L434.912 259.097L422.911 249.926L418.054 256.282ZM429.305 259.846L374.977 330.936L381.334 335.794L435.661 264.704L429.305 259.846ZM380.584 330.187L368.583 321.015L363.726 327.372L375.727 336.543L380.584 330.187ZM369.333 326.622L423.661 255.533L417.304 250.675L362.976 321.765L369.333 326.622Z" fill="#1FA3EE"/>
</g>
<defs>
<filter id="filter0_dd_1_2" x="14.5703" y="66.75" width="469.859" height="435.25" filterUnits="userSpaceOnUse" color-interpolation-filters="sRGB">
<feFlood flood-opacity="0" result="BackgroundImageFix"/>
<feColorMatrix in="SourceAlpha" type="matrix" values="0 0 0 0 0 0 0 0 0 0 0 0 0 0 0 0 0 0 127 0" result="hardAlpha"/>
<feOffset dy="4"/>
<feGaussianBlur stdDeviation="2"/>
<feComposite in2="hardAlpha" operator="out"/>
<feColorMatrix type="matrix" values="0 0 0 0 0 0 0 0 0 0 0 0 0 0 0 0 0 0 0.25 0"/>
<feBlend mode="normal" in2="BackgroundImageFix" result="effect1_dropShadow_1_2"/>
<feColorMatrix in="SourceAlpha" type="matrix" values="0 0 0 0 0 0 0 0 0 0 0 0 0 0 0 0 0 0 127 0" result="hardAlpha"/>
<feOffset/>
<feGaussianBlur stdDeviation="2.5"/>
<feComposite in2="hardAlpha" operator="out"/>
<feColorMatrix type="matrix" values="0 0 0 0 0.941667 0 0 0 0 0.388438 0 0 0 0 0.5876 0 0 0 1 0"/>
<feBlend mode="normal" in2="effect1_dropShadow_1_2" result="effect2_dropShadow_1_2"/>
<feBlend mode="normal" in="SourceGraphic" in2="effect2_dropShadow_1_2" result="shape"/>
</filter>
<clipPath id="clip0_1_2">
<rect width="500" height="500" fill="white"/>
</clipPath>
</defs>
</svg>
